G04 ---------------------------- Layer name :TOP SILK LAYER*
G04 easyEDA 0.1*
G04 Scale: 100 percent, Rotated: No, Reflected: No *
G04 Dimensions in inches *
G04 leading zeros omitted , absolute positions ,2 integer and 4 * 
%FSLAX24Y24*%
%MOIN*%
G90*
G70D02*

%ADD10C,0.010000*%
%ADD11C,0.009000*%
%ADD12C,0.008000*%
%ADD13C,0.006000*%
%ADD14C,0.007000*%

%LPD*%
%LNVIA PAD TRACK COPPERAREA*%
G54D10*
G01X13025Y59911D02*
G01X16105Y59911D01*
G01X13025Y56361D02*
G01X16105Y56361D01*
G01X13025Y59911D02*
G01X13025Y56361D01*
G01X16105Y59911D02*
G01X16105Y56361D01*
G01X13185Y58131D02*
G01X13385Y59711D01*
G01X13385Y59711D02*
G01X13775Y59711D01*
G01X13775Y59711D02*
G01X13975Y58131D01*
G01X15945Y57941D02*
G01X15745Y59711D01*
G01X15745Y59711D02*
G01X15355Y59711D01*
G01X15355Y59711D02*
G01X15155Y57941D01*
G01X14075Y59711D02*
G01X14265Y57741D01*
G01X14265Y57741D02*
G01X14865Y57741D01*
G01X14865Y57741D02*
G01X15055Y59711D01*
G01X8980Y45790D02*
G01X8980Y49670D01*
G01X8980Y49670D02*
G01X10750Y49670D01*
G01X10750Y49670D02*
G01X10750Y45790D01*
G01X10750Y45790D02*
G01X8980Y45790D01*
G01X44367Y35797D02*
G01X50367Y35797D01*
G01X50367Y29797D02*
G01X50367Y35797D01*
G01X44367Y29797D02*
G01X44367Y35797D01*
G01X44367Y29797D02*
G01X50367Y29797D01*
G01X82808Y35797D02*
G01X88808Y35797D01*
G01X88808Y29797D02*
G01X88808Y35797D01*
G01X82808Y29797D02*
G01X82808Y35797D01*
G01X82808Y29797D02*
G01X88808Y29797D01*
G54D11*
G01X82558Y34122D02*
G01X82558Y32122D01*
G01X81658Y32122D01*
G01X81658Y34122D01*
G01X82558Y34122D01*
G01X82558Y32372D02*
G01X81658Y32372D01*
G54D10*
G01X77594Y48622D02*
G01X77594Y50622D01*
G01X77594Y50622D02*
G01X77894Y50622D01*
G01X77894Y50622D02*
G01X78194Y50622D01*
G01X78194Y50622D02*
G01X78194Y48622D01*
G01X78194Y48622D02*
G01X77894Y48622D01*
G01X77894Y48622D02*
G01X77594Y48622D01*
G01X77894Y50622D02*
G01X77894Y50722D01*
G01X77894Y48622D02*
G01X77894Y48522D01*
G01X79467Y48622D02*
G01X79467Y50622D01*
G01X79467Y50622D02*
G01X79767Y50622D01*
G01X79767Y50622D02*
G01X80067Y50622D01*
G01X80067Y50622D02*
G01X80067Y48622D01*
G01X80067Y48622D02*
G01X79767Y48622D01*
G01X79767Y48622D02*
G01X79467Y48622D01*
G01X79767Y50622D02*
G01X79767Y50722D01*
G01X79767Y48622D02*
G01X79767Y48522D01*
G01X78532Y45340D02*
G01X78532Y47340D01*
G01X78532Y47340D02*
G01X78832Y47340D01*
G01X78832Y47340D02*
G01X79132Y47340D01*
G01X79132Y47340D02*
G01X79132Y45340D01*
G01X79132Y45340D02*
G01X78832Y45340D01*
G01X78832Y45340D02*
G01X78532Y45340D01*
G01X78832Y47340D02*
G01X78832Y47440D01*
G01X78832Y45340D02*
G01X78832Y45240D01*
G01X80404Y45338D02*
G01X80404Y47338D01*
G01X80404Y47338D02*
G01X80704Y47338D01*
G01X80704Y47338D02*
G01X81004Y47338D01*
G01X81004Y47338D02*
G01X81004Y45338D01*
G01X81004Y45338D02*
G01X80704Y45338D01*
G01X80704Y45338D02*
G01X80404Y45338D01*
G01X80704Y47338D02*
G01X80704Y47438D01*
G01X80704Y45338D02*
G01X80704Y45238D01*
G54D11*
G01X2445Y51951D02*
G01X4445Y51951D01*
G01X4445Y51051D01*
G01X2445Y51051D01*
G01X2445Y51951D01*
G01X4195Y51951D02*
G01X4195Y51051D01*
G01X7550Y56624D02*
G01X7550Y54624D01*
G01X6650Y54624D01*
G01X6650Y56624D01*
G01X7550Y56624D01*
G01X7550Y54874D02*
G01X6650Y54874D01*
G01X22552Y56623D02*
G01X22552Y54623D01*
G01X21652Y54623D01*
G01X21652Y56623D01*
G01X22552Y56623D01*
G01X22552Y54873D02*
G01X21652Y54873D01*
G01X30057Y56617D02*
G01X30057Y54617D01*
G01X29157Y54617D01*
G01X29157Y56617D01*
G01X30057Y56617D01*
G01X30057Y54867D02*
G01X29157Y54867D01*
G01X37551Y56623D02*
G01X37551Y54623D01*
G01X36651Y54623D01*
G01X36651Y56623D01*
G01X37551Y56623D01*
G01X37551Y54873D02*
G01X36651Y54873D01*
G01X45051Y56624D02*
G01X45051Y54624D01*
G01X44151Y54624D01*
G01X44151Y56624D01*
G01X45051Y56624D01*
G01X45051Y54874D02*
G01X44151Y54874D01*
G01X52554Y56621D02*
G01X52554Y54621D01*
G01X51654Y54621D01*
G01X51654Y56621D01*
G01X52554Y56621D01*
G01X52554Y54871D02*
G01X51654Y54871D01*
G01X60055Y56621D02*
G01X60055Y54621D01*
G01X59155Y54621D01*
G01X59155Y56621D01*
G01X60055Y56621D01*
G01X60055Y54871D02*
G01X59155Y54871D01*
G01X67553Y56623D02*
G01X67553Y54623D01*
G01X66653Y54623D01*
G01X66653Y56623D01*
G01X67553Y56623D01*
G01X67553Y54873D02*
G01X66653Y54873D01*
G01X75061Y56625D02*
G01X75061Y54625D01*
G01X74161Y54625D01*
G01X74161Y56625D01*
G01X75061Y56625D01*
G01X75061Y54875D02*
G01X74161Y54875D01*
G01X82558Y56624D02*
G01X82558Y54624D01*
G01X81658Y54624D01*
G01X81658Y56624D01*
G01X82558Y56624D01*
G01X82558Y54874D02*
G01X81658Y54874D01*
G01X84484Y51949D02*
G01X86484Y51949D01*
G01X86484Y51049D01*
G01X84484Y51049D01*
G01X84484Y51949D01*
G01X86234Y51949D02*
G01X86234Y51049D01*
G01X1927Y49124D02*
G01X1927Y47124D01*
G01X1027Y47124D01*
G01X1027Y49124D01*
G01X1927Y49124D01*
G01X1927Y47374D02*
G01X1027Y47374D01*
G01X13695Y44449D02*
G01X15695Y44449D01*
G01X15695Y43549D01*
G01X13695Y43549D01*
G01X13695Y44449D01*
G01X15445Y44449D02*
G01X15445Y43549D01*
G01X18802Y49124D02*
G01X18802Y47124D01*
G01X17902Y47124D01*
G01X17902Y49124D01*
G01X18802Y49124D01*
G01X18802Y47374D02*
G01X17902Y47374D01*
G01X33804Y49124D02*
G01X33804Y47124D01*
G01X32904Y47124D01*
G01X32904Y49124D01*
G01X33804Y49124D01*
G01X33804Y47374D02*
G01X32904Y47374D01*
G01X41305Y49124D02*
G01X41305Y47124D01*
G01X40405Y47124D01*
G01X40405Y49124D01*
G01X41305Y49124D01*
G01X41305Y47374D02*
G01X40405Y47374D01*
G01X48806Y49124D02*
G01X48806Y47124D01*
G01X47906Y47124D01*
G01X47906Y49124D01*
G01X48806Y49124D01*
G01X48806Y47374D02*
G01X47906Y47374D01*
G01X56308Y49124D02*
G01X56308Y47124D01*
G01X55408Y47124D01*
G01X55408Y49124D01*
G01X56308Y49124D01*
G01X56308Y47374D02*
G01X55408Y47374D01*
G01X63807Y49124D02*
G01X63807Y47124D01*
G01X62907Y47124D01*
G01X62907Y49124D01*
G01X63807Y49124D01*
G01X63807Y47374D02*
G01X62907Y47374D01*
G01X71309Y49124D02*
G01X71309Y47124D01*
G01X70409Y47124D01*
G01X70409Y49124D01*
G01X71309Y49124D01*
G01X71309Y47374D02*
G01X70409Y47374D01*
G01X73232Y51950D02*
G01X75232Y51950D01*
G01X75232Y51050D01*
G01X73232Y51050D01*
G01X73232Y51950D01*
G01X74982Y51950D02*
G01X74982Y51050D01*
G01X88182Y49124D02*
G01X88182Y47124D01*
G01X87282Y47124D01*
G01X87282Y49124D01*
G01X88182Y49124D01*
G01X88182Y47374D02*
G01X87282Y47374D01*
G01X7550Y41623D02*
G01X7550Y39623D01*
G01X6650Y39623D01*
G01X6650Y41623D01*
G01X7550Y41623D01*
G01X7550Y39873D02*
G01X6650Y39873D01*
G01X15051Y41623D02*
G01X15051Y39623D01*
G01X14151Y39623D01*
G01X14151Y41623D01*
G01X15051Y41623D01*
G01X15051Y39873D02*
G01X14151Y39873D01*
G01X22552Y41623D02*
G01X22552Y39623D01*
G01X21652Y39623D01*
G01X21652Y41623D01*
G01X22552Y41623D01*
G01X22552Y39873D02*
G01X21652Y39873D01*
G01X30053Y41623D02*
G01X30053Y39623D01*
G01X29153Y39623D01*
G01X29153Y41623D01*
G01X30053Y41623D01*
G01X30053Y39873D02*
G01X29153Y39873D01*
G01X37554Y41623D02*
G01X37554Y39623D01*
G01X36654Y39623D01*
G01X36654Y41623D01*
G01X37554Y41623D01*
G01X37554Y39873D02*
G01X36654Y39873D01*
G01X45054Y41623D02*
G01X45054Y39623D01*
G01X44154Y39623D01*
G01X44154Y41623D01*
G01X45054Y41623D01*
G01X45054Y39873D02*
G01X44154Y39873D01*
G01X52555Y41623D02*
G01X52555Y39623D01*
G01X51655Y39623D01*
G01X51655Y41623D01*
G01X52555Y41623D01*
G01X52555Y39873D02*
G01X51655Y39873D01*
G01X60056Y41623D02*
G01X60056Y39623D01*
G01X59156Y39623D01*
G01X59156Y41623D01*
G01X60056Y41623D01*
G01X60056Y39873D02*
G01X59156Y39873D01*
G01X67557Y41623D02*
G01X67557Y39623D01*
G01X66657Y39623D01*
G01X66657Y41623D01*
G01X67557Y41623D01*
G01X67557Y39873D02*
G01X66657Y39873D01*
G01X75058Y41623D02*
G01X75058Y39623D01*
G01X74158Y39623D01*
G01X74158Y41623D01*
G01X75058Y41623D01*
G01X75058Y39873D02*
G01X74158Y39873D01*
G01X77450Y36948D02*
G01X79450Y36948D01*
G01X79450Y36048D01*
G01X77450Y36048D01*
G01X77450Y36948D01*
G01X79200Y36948D02*
G01X79200Y36048D01*
G01X84952Y36947D02*
G01X86952Y36947D01*
G01X86952Y36047D01*
G01X84952Y36047D01*
G01X84952Y36947D01*
G01X86702Y36947D02*
G01X86702Y36047D01*
G01X8488Y34121D02*
G01X8488Y32121D01*
G01X7588Y32121D01*
G01X7588Y34121D01*
G01X8488Y34121D01*
G01X8488Y32371D02*
G01X7588Y32371D01*
G01X10363Y34122D02*
G01X10363Y32122D01*
G01X9463Y32122D01*
G01X9463Y34122D01*
G01X10363Y34122D01*
G01X10363Y32372D02*
G01X9463Y32372D01*
G01X19739Y34122D02*
G01X19739Y32122D01*
G01X18839Y32122D01*
G01X18839Y34122D01*
G01X19739Y34122D01*
G01X19739Y32372D02*
G01X18839Y32372D01*
G01X29115Y34122D02*
G01X29115Y32122D01*
G01X28215Y32122D01*
G01X28215Y34122D01*
G01X29115Y34122D01*
G01X29115Y32372D02*
G01X28215Y32372D01*
G01X36616Y34119D02*
G01X36616Y32119D01*
G01X35716Y32119D01*
G01X35716Y34119D01*
G01X36616Y34119D01*
G01X36616Y32369D02*
G01X35716Y32369D01*
G01X59118Y34122D02*
G01X59118Y32122D01*
G01X58218Y32122D01*
G01X58218Y34122D01*
G01X59118Y34122D01*
G01X59118Y32372D02*
G01X58218Y32372D01*
G01X67557Y34122D02*
G01X67557Y32122D01*
G01X66657Y32122D01*
G01X66657Y34122D01*
G01X67557Y34122D01*
G01X67557Y32372D02*
G01X66657Y32372D01*
G01X75058Y34122D02*
G01X75058Y32122D01*
G01X74158Y32122D01*
G01X74158Y34122D01*
G01X75058Y34122D01*
G01X75058Y32372D02*
G01X74158Y32372D01*
G54D10*
G01X325Y58300D02*
G01X6325Y58300D01*
G01X6325Y52300D02*
G01X6325Y58300D01*
G01X325Y52300D02*
G01X325Y58300D01*
G01X325Y52300D02*
G01X6325Y52300D01*
G01X7825Y58300D02*
G01X13825Y58300D01*
G01X13825Y52300D02*
G01X13825Y58300D01*
G01X7825Y52300D02*
G01X7825Y58300D01*
G01X7825Y52300D02*
G01X13825Y52300D01*
G01X15325Y58300D02*
G01X21325Y58300D01*
G01X21325Y52300D02*
G01X21325Y58300D01*
G01X15325Y52300D02*
G01X15325Y58300D01*
G01X15325Y52300D02*
G01X21325Y52300D01*
G01X22825Y58300D02*
G01X28825Y58300D01*
G01X28825Y52300D02*
G01X28825Y58300D01*
G01X22825Y52300D02*
G01X22825Y58300D01*
G01X22825Y52300D02*
G01X28825Y52300D01*
G01X30325Y58300D02*
G01X36325Y58300D01*
G01X36325Y52300D02*
G01X36325Y58300D01*
G01X30325Y52300D02*
G01X30325Y58300D01*
G01X30325Y52300D02*
G01X36325Y52300D01*
G01X37825Y58300D02*
G01X43825Y58300D01*
G01X43825Y52300D02*
G01X43825Y58300D01*
G01X37825Y52300D02*
G01X37825Y58300D01*
G01X37825Y52300D02*
G01X43825Y52300D01*
G01X45325Y58300D02*
G01X51325Y58300D01*
G01X51325Y52300D02*
G01X51325Y58300D01*
G01X45325Y52300D02*
G01X45325Y58300D01*
G01X45325Y52300D02*
G01X51325Y52300D01*
G01X52825Y58300D02*
G01X58825Y58300D01*
G01X58825Y52300D02*
G01X58825Y58300D01*
G01X52825Y52300D02*
G01X52825Y58300D01*
G01X52825Y52300D02*
G01X58825Y52300D01*
G01X60325Y58300D02*
G01X66325Y58300D01*
G01X66325Y52300D02*
G01X66325Y58300D01*
G01X60325Y52300D02*
G01X60325Y58300D01*
G01X60325Y52300D02*
G01X66325Y52300D01*
G01X67825Y58300D02*
G01X73825Y58300D01*
G01X73825Y52300D02*
G01X73825Y58300D01*
G01X67825Y52300D02*
G01X67825Y58300D01*
G01X67825Y52300D02*
G01X73825Y52300D01*
G01X75325Y58300D02*
G01X81325Y58300D01*
G01X81325Y52300D02*
G01X81325Y58300D01*
G01X75325Y52300D02*
G01X75325Y58300D01*
G01X75325Y52300D02*
G01X81325Y52300D01*
G01X82808Y58300D02*
G01X88808Y58300D01*
G01X88808Y52300D02*
G01X88808Y58300D01*
G01X82808Y52300D02*
G01X82808Y58300D01*
G01X82808Y52300D02*
G01X88808Y52300D01*
G01X2175Y50799D02*
G01X8175Y50799D01*
G01X8175Y44799D02*
G01X8175Y50799D01*
G01X2175Y44799D02*
G01X2175Y50799D01*
G01X2175Y44799D02*
G01X8175Y44799D01*
G01X11551Y50799D02*
G01X17551Y50799D01*
G01X17551Y44799D02*
G01X17551Y50799D01*
G01X11551Y44799D02*
G01X11551Y50799D01*
G01X11551Y44799D02*
G01X17551Y44799D01*
G01X19052Y50799D02*
G01X25052Y50799D01*
G01X25052Y44799D02*
G01X25052Y50799D01*
G01X19052Y44799D02*
G01X19052Y50799D01*
G01X19052Y44799D02*
G01X25052Y44799D01*
G01X26552Y50799D02*
G01X32552Y50799D01*
G01X32552Y44799D02*
G01X32552Y50799D01*
G01X26552Y44799D02*
G01X26552Y50799D01*
G01X26552Y44799D02*
G01X32552Y44799D01*
G01X34053Y50799D02*
G01X40053Y50799D01*
G01X40053Y44799D02*
G01X40053Y50799D01*
G01X34053Y44799D02*
G01X34053Y50799D01*
G01X34053Y44799D02*
G01X40053Y44799D01*
G01X41554Y50799D02*
G01X47554Y50799D01*
G01X47554Y44799D02*
G01X47554Y50799D01*
G01X41554Y44799D02*
G01X41554Y50799D01*
G01X41554Y44799D02*
G01X47554Y44799D01*
G01X49055Y50799D02*
G01X55055Y50799D01*
G01X55055Y44799D02*
G01X55055Y50799D01*
G01X49055Y44799D02*
G01X49055Y50799D01*
G01X49055Y44799D02*
G01X55055Y44799D01*
G01X56555Y50799D02*
G01X62555Y50799D01*
G01X62555Y44799D02*
G01X62555Y50799D01*
G01X56555Y44799D02*
G01X56555Y50799D01*
G01X56555Y44799D02*
G01X62555Y44799D01*
G01X64056Y50799D02*
G01X70056Y50799D01*
G01X70056Y44799D02*
G01X70056Y50799D01*
G01X64056Y44799D02*
G01X64056Y50799D01*
G01X64056Y44799D02*
G01X70056Y44799D01*
G01X71557Y50799D02*
G01X77557Y50799D01*
G01X77557Y44799D02*
G01X77557Y50799D01*
G01X71557Y44799D02*
G01X71557Y50799D01*
G01X71557Y44799D02*
G01X77557Y44799D01*
G01X80933Y50799D02*
G01X86933Y50799D01*
G01X86933Y44799D02*
G01X86933Y50799D01*
G01X80933Y44799D02*
G01X80933Y50799D01*
G01X80933Y44799D02*
G01X86933Y44799D01*
G01X300Y43298D02*
G01X6300Y43298D01*
G01X6300Y37298D02*
G01X6300Y43298D01*
G01X300Y37298D02*
G01X300Y43298D01*
G01X300Y37298D02*
G01X6300Y37298D01*
G01X7800Y43298D02*
G01X13800Y43298D01*
G01X13800Y37298D02*
G01X13800Y43298D01*
G01X7800Y37298D02*
G01X7800Y43298D01*
G01X7800Y37298D02*
G01X13800Y37298D01*
G01X15301Y43298D02*
G01X21301Y43298D01*
G01X21301Y37298D02*
G01X21301Y43298D01*
G01X15301Y37298D02*
G01X15301Y43298D01*
G01X15301Y37298D02*
G01X21301Y37298D01*
G01X22802Y43298D02*
G01X28802Y43298D01*
G01X28802Y37298D02*
G01X28802Y43298D01*
G01X22802Y37298D02*
G01X22802Y43298D01*
G01X22802Y37298D02*
G01X28802Y37298D01*
G01X30303Y43298D02*
G01X36303Y43298D01*
G01X36303Y37298D02*
G01X36303Y43298D01*
G01X30303Y37298D02*
G01X30303Y43298D01*
G01X30303Y37298D02*
G01X36303Y37298D01*
G01X37804Y43298D02*
G01X43804Y43298D01*
G01X43804Y37298D02*
G01X43804Y43298D01*
G01X37804Y37298D02*
G01X37804Y43298D01*
G01X37804Y37298D02*
G01X43804Y37298D01*
G01X45304Y43298D02*
G01X51304Y43298D01*
G01X51304Y37298D02*
G01X51304Y43298D01*
G01X45304Y37298D02*
G01X45304Y43298D01*
G01X45304Y37298D02*
G01X51304Y37298D01*
G01X52805Y43298D02*
G01X58805Y43298D01*
G01X58805Y37298D02*
G01X58805Y43298D01*
G01X52805Y37298D02*
G01X52805Y43298D01*
G01X52805Y37298D02*
G01X58805Y37298D01*
G01X60306Y43298D02*
G01X66306Y43298D01*
G01X66306Y37298D02*
G01X66306Y43298D01*
G01X60306Y37298D02*
G01X60306Y43298D01*
G01X60306Y37298D02*
G01X66306Y37298D01*
G01X67807Y43298D02*
G01X73807Y43298D01*
G01X73807Y37298D02*
G01X73807Y43298D01*
G01X67807Y37298D02*
G01X67807Y43298D01*
G01X67807Y37298D02*
G01X73807Y37298D01*
G01X75308Y43298D02*
G01X81308Y43298D01*
G01X81308Y37298D02*
G01X81308Y43298D01*
G01X75308Y37298D02*
G01X75308Y43298D01*
G01X75308Y37298D02*
G01X81308Y37298D01*
G01X82808Y43298D02*
G01X88808Y43298D01*
G01X88808Y37298D02*
G01X88808Y43298D01*
G01X82808Y37298D02*
G01X82808Y43298D01*
G01X82808Y37298D02*
G01X88808Y37298D01*
G01X1237Y35797D02*
G01X7237Y35797D01*
G01X7237Y29797D02*
G01X7237Y35797D01*
G01X1237Y29797D02*
G01X1237Y35797D01*
G01X1237Y29797D02*
G01X7237Y29797D01*
G01X10613Y35797D02*
G01X16613Y35797D01*
G01X16613Y29797D02*
G01X16613Y35797D01*
G01X10613Y29797D02*
G01X10613Y35797D01*
G01X10613Y29797D02*
G01X16613Y29797D01*
G01X19989Y35798D02*
G01X25989Y35798D01*
G01X25989Y29798D02*
G01X25989Y35798D01*
G01X19989Y29798D02*
G01X19989Y35798D01*
G01X19989Y29798D02*
G01X25989Y29798D01*
G01X29365Y35798D02*
G01X35365Y35798D01*
G01X35365Y29798D02*
G01X35365Y35798D01*
G01X29365Y29798D02*
G01X29365Y35798D01*
G01X29365Y29798D02*
G01X35365Y29798D01*
G01X59369Y35798D02*
G01X65369Y35798D01*
G01X65369Y29798D02*
G01X65369Y35798D01*
G01X59369Y29798D02*
G01X59369Y35798D01*
G01X59369Y29798D02*
G01X65369Y29798D01*
G01X67807Y35797D02*
G01X73807Y35797D01*
G01X73807Y29797D02*
G01X73807Y35797D01*
G01X67807Y29797D02*
G01X67807Y35797D01*
G01X67807Y29797D02*
G01X73807Y29797D01*
G01X75308Y35797D02*
G01X81308Y35797D01*
G01X81308Y29797D02*
G01X81308Y35797D01*
G01X75308Y29797D02*
G01X75308Y35797D01*
G01X75308Y29797D02*
G01X81308Y29797D01*
G54D12*
G01X56695Y30270D02*
G01X57458Y30270D01*
G01X56695Y30778D02*
G01X57204Y30270D01*
G01X57022Y30452D02*
G01X57458Y30778D01*
G01X56695Y31019D02*
G01X57458Y31201D01*
G01X56695Y31383D02*
G01X57458Y31201D01*
G01X56695Y31383D02*
G01X57458Y31564D01*
G01X56695Y31746D02*
G01X57458Y31564D01*
G01X56695Y32277D02*
G01X57458Y31986D01*
G01X56695Y32277D02*
G01X57458Y32567D01*
G01X57204Y32095D02*
G01X57204Y32459D01*
G01X56695Y32808D02*
G01X57458Y32808D01*
G01X56695Y32808D02*
G01X56695Y33135D01*
G01X56730Y33245D01*
G01X56766Y33280D01*
G01X56840Y33316D01*
G01X56913Y33316D01*
G01X56986Y33280D01*
G01X57022Y33245D01*
G01X57058Y33135D01*
G01X57058Y32808D01*
G01X57058Y33063D02*
G01X57458Y33316D01*
G01X56695Y33557D02*
G01X57458Y33557D01*
G01X56695Y34066D02*
G01X57204Y33557D01*
G01X57022Y33739D02*
G01X57458Y34066D01*
G01X56840Y34866D02*
G01X56804Y34939D01*
G01X56695Y35048D01*
G01X57458Y35048D01*
G01X57276Y35325D02*
G01X57313Y35288D01*
G01X57349Y35325D01*
G01X57313Y35361D01*
G01X57276Y35325D01*
G01X56695Y35819D02*
G01X56730Y35710D01*
G01X56840Y35637D01*
G01X57022Y35601D01*
G01X57130Y35601D01*
G01X57313Y35637D01*
G01X57422Y35710D01*
G01X57458Y35819D01*
G01X57458Y35891D01*
G01X57422Y36001D01*
G01X57313Y36074D01*
G01X57130Y36110D01*
G01X57022Y36110D01*
G01X56840Y36074D01*
G01X56730Y36001D01*
G01X56695Y35891D01*
G01X56695Y35819D01*
G54D13*
G01X10482Y48838D02*
G01X10472Y48856D01*
G01X10446Y48883D01*
G01X10637Y48883D01*
G54D14*
G01X45349Y35375D02*
G01X45349Y34940D01*
G01X45349Y35375D02*
G01X45512Y34940D01*
G01X45674Y35375D02*
G01X45512Y34940D01*
G01X45674Y35375D02*
G01X45674Y34940D01*
G01X45810Y35375D02*
G01X46097Y34940D01*
G01X46097Y35375D02*
G01X45810Y34940D01*
G01X46437Y35375D02*
G01X46232Y35087D01*
G01X46537Y35087D01*
G01X46437Y35375D02*
G01X46437Y34940D01*
G01X46694Y35266D02*
G01X46694Y35288D01*
G01X46712Y35329D01*
G01X46735Y35350D01*
G01X46774Y35375D01*
G01X46858Y35375D01*
G01X46899Y35350D01*
G01X46919Y35329D01*
G01X46937Y35288D01*
G01X46937Y35250D01*
G01X46919Y35212D01*
G01X46874Y35150D01*
G01X46674Y34940D01*
G01X46960Y34940D01*
G01X47258Y35375D02*
G01X47095Y34940D01*
G01X47258Y35375D02*
G01X47422Y34940D01*
G01X47157Y35087D02*
G01X47362Y35087D01*
G01X83228Y35435D02*
G01X83228Y34998D01*
G01X83228Y35435D02*
G01X83392Y34998D01*
G01X83555Y35435D02*
G01X83392Y34998D01*
G01X83555Y35435D02*
G01X83555Y34998D01*
G01X83690Y35435D02*
G01X83977Y34998D01*
G01X83977Y35435D02*
G01X83690Y34998D01*
G01X84316Y35435D02*
G01X84112Y35148D01*
G01X84418Y35148D01*
G01X84316Y35435D02*
G01X84316Y34998D01*
G01X84656Y35435D02*
G01X84593Y35410D01*
G01X84574Y35373D01*
G01X84574Y35325D01*
G01X84593Y35285D01*
G01X84635Y35273D01*
G01X84717Y35248D01*
G01X84778Y35223D01*
G01X84818Y35185D01*
G01X84840Y35148D01*
G01X84840Y35085D01*
G01X84818Y35048D01*
G01X84799Y35023D01*
G01X84737Y34998D01*
G01X84656Y34998D01*
G01X84593Y35023D01*
G01X84574Y35048D01*
G01X84553Y35085D01*
G01X84553Y35148D01*
G01X84574Y35185D01*
G01X84615Y35223D01*
G01X84675Y35248D01*
G01X84756Y35273D01*
G01X84799Y35285D01*
G01X84818Y35325D01*
G01X84818Y35373D01*
G01X84799Y35410D01*
G01X84737Y35435D01*
G01X84656Y35435D01*
G01X82339Y33788D02*
G01X81907Y33788D01*
G01X82339Y33788D02*
G01X82339Y33647D01*
G01X82318Y33584D01*
G01X82277Y33547D01*
G01X82238Y33523D01*
G01X82177Y33509D01*
G01X82070Y33509D01*
G01X82013Y33523D01*
G01X81970Y33547D01*
G01X81929Y33584D01*
G01X81907Y33647D01*
G01X81907Y33788D01*
G01X82339Y33162D02*
G01X82052Y33372D01*
G01X82052Y33061D01*
G01X82339Y33162D02*
G01X81907Y33162D01*
G01X82339Y32824D02*
G01X82318Y32885D01*
G01X82277Y32909D01*
G01X82238Y32909D01*
G01X82195Y32885D01*
G01X82177Y32847D01*
G01X82154Y32761D01*
G01X82132Y32700D01*
G01X82093Y32659D01*
G01X82052Y32638D01*
G01X81991Y32638D01*
G01X81952Y32659D01*
G01X81929Y32684D01*
G01X81907Y32747D01*
G01X81907Y32824D01*
G01X81929Y32885D01*
G01X81952Y32909D01*
G01X81991Y32925D01*
G01X82052Y32925D01*
G01X82093Y32909D01*
G01X82132Y32863D01*
G01X82154Y32809D01*
G01X82177Y32722D01*
G01X82195Y32684D01*
G01X82238Y32659D01*
G01X82277Y32659D01*
G01X82318Y32684D01*
G01X82339Y32747D01*
G01X82339Y32824D01*
G01X77664Y49291D02*
G01X78095Y49291D01*
G01X77664Y49291D02*
G01X77664Y49474D01*
G01X77683Y49536D01*
G01X77703Y49557D01*
G01X77745Y49576D01*
G01X77786Y49576D01*
G01X77826Y49557D01*
G01X77847Y49536D01*
G01X77870Y49474D01*
G01X77870Y49291D01*
G01X77870Y49434D02*
G01X78095Y49576D01*
G01X77745Y49712D02*
G01X77724Y49752D01*
G01X77664Y49815D01*
G01X78095Y49815D01*
G01X79538Y49328D02*
G01X79972Y49328D01*
G01X79538Y49328D02*
G01X79538Y49510D01*
G01X79559Y49572D01*
G01X79578Y49593D01*
G01X79622Y49612D01*
G01X79661Y49612D01*
G01X79701Y49593D01*
G01X79724Y49572D01*
G01X79747Y49510D01*
G01X79747Y49328D01*
G01X79747Y49469D02*
G01X79972Y49612D01*
G01X79640Y49768D02*
G01X79622Y49768D01*
G01X79578Y49788D01*
G01X79559Y49810D01*
G01X79538Y49850D01*
G01X79538Y49931D01*
G01X79559Y49972D01*
G01X79578Y49993D01*
G01X79622Y50013D01*
G01X79661Y50013D01*
G01X79701Y49993D01*
G01X79763Y49954D01*
G01X79972Y49747D01*
G01X79972Y50035D01*
G01X78599Y46045D02*
G01X79032Y46045D01*
G01X78599Y46045D02*
G01X78599Y46221D01*
G01X78618Y46284D01*
G01X78640Y46309D01*
G01X78682Y46328D01*
G01X78721Y46328D01*
G01X78762Y46309D01*
G01X78782Y46284D01*
G01X78807Y46221D01*
G01X78807Y46045D01*
G01X78807Y46184D02*
G01X79032Y46328D01*
G01X78599Y46504D02*
G01X78599Y46729D01*
G01X78762Y46609D01*
G01X78762Y46671D01*
G01X78782Y46708D01*
G01X78807Y46729D01*
G01X78865Y46746D01*
G01X78907Y46746D01*
G01X78968Y46729D01*
G01X79007Y46683D01*
G01X79032Y46627D01*
G01X79032Y46566D01*
G01X79007Y46504D01*
G01X78987Y46484D01*
G01X78946Y46459D01*
G01X80510Y45945D02*
G01X80937Y45945D01*
G01X80510Y45945D02*
G01X80510Y46132D01*
G01X80524Y46195D01*
G01X80549Y46213D01*
G01X80587Y46232D01*
G01X80632Y46232D01*
G01X80673Y46213D01*
G01X80687Y46195D01*
G01X80712Y46132D01*
G01X80712Y45945D01*
G01X80712Y46090D02*
G01X80937Y46232D01*
G01X80510Y46571D02*
G01X80796Y46370D01*
G01X80796Y46675D01*
G01X80510Y46571D02*
G01X80937Y46571D01*
G01X3004Y51762D02*
G01X3004Y51329D01*
G01X3004Y51762D02*
G01X3148Y51762D01*
G01X3211Y51739D01*
G01X3253Y51700D01*
G01X3273Y51656D01*
G01X3292Y51600D01*
G01X3292Y51494D01*
G01X3273Y51431D01*
G01X3253Y51391D01*
G01X3211Y51350D01*
G01X3148Y51329D01*
G01X3004Y51329D01*
G01X3429Y51678D02*
G01X3467Y51700D01*
G01X3529Y51762D01*
G01X3529Y51329D01*
G01X7325Y56116D02*
G01X6894Y56116D01*
G01X7325Y56116D02*
G01X7325Y55978D01*
G01X7303Y55915D01*
G01X7263Y55871D01*
G01X7221Y55853D01*
G01X7163Y55829D01*
G01X7056Y55829D01*
G01X6996Y55853D01*
G01X6955Y55871D01*
G01X6913Y55915D01*
G01X6894Y55978D01*
G01X6894Y56116D01*
G01X7221Y55678D02*
G01X7241Y55678D01*
G01X7281Y55654D01*
G01X7303Y55632D01*
G01X7325Y55592D01*
G01X7325Y55515D01*
G01X7303Y55470D01*
G01X7281Y55453D01*
G01X7241Y55429D01*
G01X7200Y55429D01*
G01X7163Y55453D01*
G01X7100Y55490D01*
G01X6894Y55695D01*
G01X6894Y55407D01*
G01X22330Y56069D02*
G01X21898Y56069D01*
G01X22330Y56069D02*
G01X22330Y55929D01*
G01X22307Y55867D01*
G01X22268Y55824D01*
G01X22226Y55804D01*
G01X22168Y55786D01*
G01X22063Y55786D01*
G01X22001Y55804D01*
G01X21957Y55824D01*
G01X21919Y55867D01*
G01X21898Y55929D01*
G01X21898Y56069D01*
G01X22330Y55611D02*
G01X22330Y55381D01*
G01X22168Y55504D01*
G01X22168Y55443D01*
G01X22144Y55404D01*
G01X22123Y55381D01*
G01X22063Y55361D01*
G01X22020Y55361D01*
G01X21957Y55381D01*
G01X21919Y55423D01*
G01X21898Y55486D01*
G01X21898Y55548D01*
G01X21919Y55611D01*
G01X21942Y55629D01*
G01X21981Y55648D01*
G01X29839Y56061D02*
G01X29411Y56061D01*
G01X29839Y56061D02*
G01X29839Y55923D01*
G01X29820Y55861D01*
G01X29779Y55814D01*
G01X29738Y55798D01*
G01X29677Y55773D01*
G01X29575Y55773D01*
G01X29513Y55798D01*
G01X29472Y55814D01*
G01X29431Y55861D01*
G01X29411Y55923D01*
G01X29411Y56061D01*
G01X29839Y55436D02*
G01X29554Y55638D01*
G01X29554Y55336D01*
G01X29839Y55436D02*
G01X29411Y55436D01*
G01X37300Y56067D02*
G01X36868Y56067D01*
G01X37300Y56067D02*
G01X37300Y55929D01*
G01X37277Y55867D01*
G01X37238Y55822D01*
G01X37195Y55804D01*
G01X37138Y55780D01*
G01X37032Y55780D01*
G01X36970Y55804D01*
G01X36929Y55822D01*
G01X36888Y55867D01*
G01X36868Y55929D01*
G01X36868Y56067D01*
G01X37300Y55404D02*
G01X37300Y55604D01*
G01X37113Y55629D01*
G01X37138Y55604D01*
G01X37154Y55543D01*
G01X37154Y55481D01*
G01X37138Y55421D01*
G01X37093Y55379D01*
G01X37032Y55358D01*
G01X36991Y55358D01*
G01X36929Y55379D01*
G01X36888Y55421D01*
G01X36868Y55481D01*
G01X36868Y55543D01*
G01X36888Y55604D01*
G01X36913Y55629D01*
G01X36950Y55646D01*
G01X44835Y56031D02*
G01X44404Y56031D01*
G01X44835Y56031D02*
G01X44835Y55894D01*
G01X44814Y55831D01*
G01X44772Y55786D01*
G01X44730Y55769D01*
G01X44671Y55745D01*
G01X44566Y55745D01*
G01X44505Y55769D01*
G01X44466Y55786D01*
G01X44425Y55831D01*
G01X44404Y55894D01*
G01X44404Y56031D01*
G01X44772Y55370D02*
G01X44814Y55385D01*
G01X44835Y55446D01*
G01X44835Y55487D01*
G01X44814Y55548D01*
G01X44753Y55595D01*
G01X44649Y55610D01*
G01X44548Y55610D01*
G01X44466Y55595D01*
G01X44425Y55548D01*
G01X44404Y55487D01*
G01X44404Y55470D01*
G01X44425Y55406D01*
G01X44466Y55370D01*
G01X44528Y55345D01*
G01X44548Y55345D01*
G01X44610Y55370D01*
G01X44649Y55406D01*
G01X44671Y55470D01*
G01X44671Y55487D01*
G01X44649Y55548D01*
G01X44610Y55595D01*
G01X44548Y55610D01*
G01X52337Y56176D02*
G01X51904Y56176D01*
G01X52337Y56176D02*
G01X52337Y56037D01*
G01X52316Y55974D01*
G01X52276Y55930D01*
G01X52235Y55912D01*
G01X52174Y55890D01*
G01X52072Y55890D01*
G01X52010Y55912D01*
G01X51966Y55930D01*
G01X51928Y55974D01*
G01X51904Y56037D01*
G01X51904Y56176D01*
G01X52337Y55468D02*
G01X51904Y55674D01*
G01X52337Y55754D02*
G01X52337Y55468D01*
G01X59840Y56102D02*
G01X59407Y56102D01*
G01X59840Y56102D02*
G01X59840Y55963D01*
G01X59819Y55900D01*
G01X59778Y55856D01*
G01X59737Y55838D01*
G01X59676Y55816D01*
G01X59569Y55816D01*
G01X59511Y55838D01*
G01X59469Y55856D01*
G01X59429Y55900D01*
G01X59407Y55963D01*
G01X59407Y56102D01*
G01X59840Y55578D02*
G01X59819Y55640D01*
G01X59778Y55663D01*
G01X59737Y55663D01*
G01X59694Y55640D01*
G01X59676Y55600D01*
G01X59654Y55517D01*
G01X59632Y55455D01*
G01X59594Y55415D01*
G01X59553Y55394D01*
G01X59491Y55394D01*
G01X59451Y55415D01*
G01X59429Y55438D01*
G01X59407Y55500D01*
G01X59407Y55578D01*
G01X59429Y55640D01*
G01X59451Y55663D01*
G01X59491Y55680D01*
G01X59553Y55680D01*
G01X59594Y55663D01*
G01X59632Y55619D01*
G01X59654Y55557D01*
G01X59676Y55476D01*
G01X59694Y55438D01*
G01X59737Y55415D01*
G01X59778Y55415D01*
G01X59819Y55438D01*
G01X59840Y55500D01*
G01X59840Y55578D01*
G01X67299Y56104D02*
G01X66868Y56104D01*
G01X67299Y56104D02*
G01X67299Y55966D01*
G01X67278Y55904D01*
G01X67237Y55854D01*
G01X67193Y55841D01*
G01X67137Y55816D01*
G01X67030Y55816D01*
G01X66968Y55841D01*
G01X66930Y55854D01*
G01X66890Y55904D01*
G01X66868Y55966D01*
G01X66868Y56104D01*
G01X67155Y55416D02*
G01X67093Y55441D01*
G01X67053Y55478D01*
G01X67030Y55541D01*
G01X67030Y55553D01*
G01X67053Y55616D01*
G01X67093Y55666D01*
G01X67155Y55678D01*
G01X67176Y55678D01*
G01X67237Y55666D01*
G01X67278Y55616D01*
G01X67299Y55553D01*
G01X67299Y55541D01*
G01X67278Y55478D01*
G01X67237Y55441D01*
G01X67155Y55416D01*
G01X67053Y55416D01*
G01X66951Y55441D01*
G01X66890Y55478D01*
G01X66868Y55541D01*
G01X66868Y55578D01*
G01X66890Y55641D01*
G01X66930Y55666D01*
G01X74842Y56217D02*
G01X74413Y56217D01*
G01X74842Y56217D02*
G01X74842Y56079D01*
G01X74823Y56017D01*
G01X74782Y55973D01*
G01X74740Y55954D01*
G01X74680Y55930D01*
G01X74578Y55930D01*
G01X74515Y55954D01*
G01X74475Y55973D01*
G01X74434Y56017D01*
G01X74413Y56079D01*
G01X74413Y56217D01*
G01X74762Y55796D02*
G01X74782Y55754D01*
G01X74842Y55693D01*
G01X74413Y55693D01*
G01X74842Y55442D02*
G01X74823Y55498D01*
G01X74762Y55542D01*
G01X74659Y55557D01*
G01X74598Y55557D01*
G01X74496Y55542D01*
G01X74434Y55498D01*
G01X74413Y55442D01*
G01X74413Y55395D01*
G01X74434Y55332D01*
G01X74496Y55292D01*
G01X74598Y55272D01*
G01X74659Y55272D01*
G01X74762Y55292D01*
G01X74823Y55332D01*
G01X74842Y55395D01*
G01X74842Y55442D01*
G01X82346Y56144D02*
G01X81910Y56144D01*
G01X82346Y56144D02*
G01X82346Y56005D01*
G01X82322Y55944D01*
G01X82284Y55899D01*
G01X82235Y55880D01*
G01X82184Y55857D01*
G01X82072Y55857D01*
G01X82016Y55880D01*
G01X81972Y55899D01*
G01X81935Y55944D01*
G01X81910Y56005D01*
G01X81910Y56144D01*
G01X82260Y55723D02*
G01X82284Y55681D01*
G01X82346Y55620D01*
G01X81910Y55620D01*
G01X82260Y55485D02*
G01X82284Y55444D01*
G01X82346Y55382D01*
G01X81910Y55382D01*
G01X84929Y51733D02*
G01X84929Y51303D01*
G01X84929Y51733D02*
G01X85067Y51733D01*
G01X85129Y51712D01*
G01X85178Y51671D01*
G01X85192Y51629D01*
G01X85217Y51571D01*
G01X85217Y51467D01*
G01X85192Y51404D01*
G01X85178Y51364D01*
G01X85129Y51323D01*
G01X85067Y51303D01*
G01X84929Y51303D01*
G01X85354Y51651D02*
G01X85392Y51671D01*
G01X85454Y51733D01*
G01X85454Y51303D01*
G01X85604Y51629D02*
G01X85604Y51651D01*
G01X85629Y51692D01*
G01X85653Y51712D01*
G01X85692Y51733D01*
G01X85767Y51733D01*
G01X85817Y51712D01*
G01X85829Y51692D01*
G01X85854Y51651D01*
G01X85854Y51610D01*
G01X85829Y51571D01*
G01X85792Y51508D01*
G01X85592Y51303D01*
G01X85878Y51303D01*
G01X1707Y48642D02*
G01X1278Y48642D01*
G01X1707Y48642D02*
G01X1707Y48503D01*
G01X1687Y48440D01*
G01X1645Y48397D01*
G01X1604Y48378D01*
G01X1545Y48356D01*
G01X1442Y48356D01*
G01X1379Y48378D01*
G01X1339Y48397D01*
G01X1298Y48440D01*
G01X1278Y48503D01*
G01X1278Y48642D01*
G01X1626Y48221D02*
G01X1645Y48180D01*
G01X1707Y48118D01*
G01X1278Y48118D01*
G01X1707Y47942D02*
G01X1707Y47717D01*
G01X1545Y47840D01*
G01X1545Y47779D01*
G01X1523Y47740D01*
G01X1503Y47717D01*
G01X1442Y47697D01*
G01X1401Y47697D01*
G01X1339Y47717D01*
G01X1298Y47758D01*
G01X1278Y47820D01*
G01X1278Y47881D01*
G01X1298Y47942D01*
G01X1320Y47965D01*
G01X1361Y47983D01*
G01X14066Y44229D02*
G01X14066Y43800D01*
G01X14066Y44229D02*
G01X14205Y44229D01*
G01X14268Y44209D01*
G01X14312Y44170D01*
G01X14330Y44127D01*
G01X14351Y44066D01*
G01X14351Y43964D01*
G01X14330Y43902D01*
G01X14312Y43861D01*
G01X14268Y43820D01*
G01X14205Y43800D01*
G01X14066Y43800D01*
G01X14488Y44148D02*
G01X14526Y44170D01*
G01X14588Y44229D01*
G01X14588Y43800D01*
G01X14930Y44229D02*
G01X14726Y43945D01*
G01X15030Y43945D01*
G01X14930Y44229D02*
G01X14930Y43800D01*
G01X18547Y48679D02*
G01X18118Y48679D01*
G01X18547Y48679D02*
G01X18547Y48542D01*
G01X18527Y48479D01*
G01X18486Y48432D01*
G01X18445Y48417D01*
G01X18383Y48392D01*
G01X18282Y48392D01*
G01X18220Y48417D01*
G01X18179Y48432D01*
G01X18138Y48479D01*
G01X18118Y48542D01*
G01X18118Y48679D01*
G01X18466Y48256D02*
G01X18486Y48217D01*
G01X18547Y48154D01*
G01X18118Y48154D01*
G01X18547Y47779D02*
G01X18547Y47979D01*
G01X18363Y48004D01*
G01X18383Y47979D01*
G01X18404Y47917D01*
G01X18404Y47855D01*
G01X18383Y47793D01*
G01X18343Y47754D01*
G01X18282Y47732D01*
G01X18241Y47732D01*
G01X18179Y47754D01*
G01X18138Y47793D01*
G01X18118Y47855D01*
G01X18118Y47917D01*
G01X18138Y47979D01*
G01X18158Y48004D01*
G01X18200Y48018D01*
G01X33590Y48716D02*
G01X33160Y48716D01*
G01X33590Y48716D02*
G01X33590Y48575D01*
G01X33569Y48513D01*
G01X33529Y48471D01*
G01X33487Y48450D01*
G01X33427Y48430D01*
G01X33324Y48430D01*
G01X33262Y48450D01*
G01X33221Y48471D01*
G01X33180Y48513D01*
G01X33160Y48575D01*
G01X33160Y48716D01*
G01X33508Y48295D02*
G01X33529Y48254D01*
G01X33590Y48192D01*
G01X33160Y48192D01*
G01X33529Y47813D02*
G01X33569Y47832D01*
G01X33590Y47894D01*
G01X33590Y47937D01*
G01X33569Y47996D01*
G01X33508Y48038D01*
G01X33405Y48057D01*
G01X33303Y48057D01*
G01X33221Y48038D01*
G01X33180Y47996D01*
G01X33160Y47937D01*
G01X33160Y47914D01*
G01X33180Y47853D01*
G01X33221Y47813D01*
G01X33283Y47791D01*
G01X33303Y47791D01*
G01X33365Y47813D01*
G01X33405Y47853D01*
G01X33427Y47914D01*
G01X33427Y47937D01*
G01X33405Y47996D01*
G01X33365Y48038D01*
G01X33303Y48057D01*
G01X41089Y48679D02*
G01X40657Y48679D01*
G01X41089Y48679D02*
G01X41089Y48540D01*
G01X41069Y48478D01*
G01X41028Y48434D01*
G01X40982Y48415D01*
G01X40926Y48393D01*
G01X40819Y48393D01*
G01X40757Y48415D01*
G01X40720Y48434D01*
G01X40680Y48478D01*
G01X40657Y48540D01*
G01X40657Y48679D01*
G01X41007Y48258D02*
G01X41028Y48217D01*
G01X41089Y48155D01*
G01X40657Y48155D01*
G01X41089Y47734D02*
G01X40657Y47940D01*
G01X41089Y48020D02*
G01X41089Y47734D01*
G01X48626Y48679D02*
G01X48197Y48679D01*
G01X48626Y48679D02*
G01X48626Y48541D01*
G01X48605Y48479D01*
G01X48565Y48433D01*
G01X48522Y48416D01*
G01X48463Y48392D01*
G01X48359Y48392D01*
G01X48297Y48416D01*
G01X48258Y48433D01*
G01X48216Y48479D01*
G01X48197Y48541D01*
G01X48197Y48679D01*
G01X48545Y48257D02*
G01X48565Y48216D01*
G01X48626Y48154D01*
G01X48197Y48154D01*
G01X48626Y47917D02*
G01X48605Y47979D01*
G01X48565Y48004D01*
G01X48522Y48004D01*
G01X48483Y47979D01*
G01X48463Y47941D01*
G01X48441Y47856D01*
G01X48422Y47794D01*
G01X48380Y47754D01*
G01X48340Y47733D01*
G01X48279Y47733D01*
G01X48238Y47754D01*
G01X48216Y47779D01*
G01X48197Y47841D01*
G01X48197Y47917D01*
G01X48216Y47979D01*
G01X48238Y48004D01*
G01X48279Y48019D01*
G01X48340Y48019D01*
G01X48380Y48004D01*
G01X48422Y47958D01*
G01X48441Y47904D01*
G01X48463Y47816D01*
G01X48483Y47779D01*
G01X48522Y47754D01*
G01X48565Y47754D01*
G01X48605Y47779D01*
G01X48626Y47841D01*
G01X48626Y47917D01*
G01X56096Y48753D02*
G01X55663Y48753D01*
G01X56096Y48753D02*
G01X56096Y48609D01*
G01X56072Y48546D01*
G01X56034Y48504D01*
G01X55988Y48484D01*
G01X55929Y48466D01*
G01X55825Y48466D01*
G01X55763Y48484D01*
G01X55724Y48504D01*
G01X55684Y48546D01*
G01X55663Y48609D01*
G01X55663Y48753D01*
G01X56011Y48328D02*
G01X56034Y48291D01*
G01X56096Y48228D01*
G01X55663Y48228D01*
G01X55949Y47828D02*
G01X55888Y47846D01*
G01X55847Y47891D01*
G01X55825Y47947D01*
G01X55825Y47970D01*
G01X55847Y48029D01*
G01X55888Y48071D01*
G01X55949Y48091D01*
G01X55971Y48091D01*
G01X56034Y48071D01*
G01X56072Y48029D01*
G01X56096Y47970D01*
G01X56096Y47947D01*
G01X56072Y47891D01*
G01X56034Y47846D01*
G01X55949Y47828D01*
G01X55847Y47828D01*
G01X55746Y47846D01*
G01X55684Y47891D01*
G01X55663Y47947D01*
G01X55663Y47991D01*
G01X55684Y48053D01*
G01X55724Y48071D01*
G01X63591Y48790D02*
G01X63163Y48790D01*
G01X63591Y48790D02*
G01X63591Y48651D01*
G01X63572Y48588D01*
G01X63529Y48545D01*
G01X63489Y48526D01*
G01X63428Y48504D01*
G01X63327Y48504D01*
G01X63264Y48526D01*
G01X63224Y48545D01*
G01X63183Y48588D01*
G01X63163Y48651D01*
G01X63163Y48790D01*
G01X63489Y48351D02*
G01X63511Y48351D01*
G01X63552Y48328D01*
G01X63572Y48307D01*
G01X63591Y48266D01*
G01X63591Y48188D01*
G01X63572Y48144D01*
G01X63552Y48126D01*
G01X63511Y48103D01*
G01X63470Y48103D01*
G01X63428Y48126D01*
G01X63366Y48164D01*
G01X63163Y48369D01*
G01X63163Y48082D01*
G01X63591Y47826D02*
G01X63572Y47888D01*
G01X63511Y47927D01*
G01X63408Y47951D01*
G01X63347Y47951D01*
G01X63245Y47927D01*
G01X63183Y47888D01*
G01X63163Y47826D01*
G01X63163Y47788D01*
G01X63183Y47726D01*
G01X63245Y47681D01*
G01X63347Y47663D01*
G01X63408Y47663D01*
G01X63511Y47681D01*
G01X63572Y47726D01*
G01X63591Y47788D01*
G01X63591Y47826D01*
G01X71093Y48753D02*
G01X70664Y48753D01*
G01X71093Y48753D02*
G01X71093Y48615D01*
G01X71073Y48553D01*
G01X71032Y48508D01*
G01X70991Y48490D01*
G01X70930Y48467D01*
G01X70828Y48467D01*
G01X70766Y48490D01*
G01X70725Y48508D01*
G01X70684Y48553D01*
G01X70664Y48615D01*
G01X70664Y48753D01*
G01X70991Y48315D02*
G01X71012Y48315D01*
G01X71053Y48291D01*
G01X71073Y48270D01*
G01X71093Y48229D01*
G01X71093Y48153D01*
G01X71073Y48107D01*
G01X71053Y48090D01*
G01X71012Y48066D01*
G01X70971Y48066D01*
G01X70930Y48090D01*
G01X70868Y48128D01*
G01X70664Y48332D01*
G01X70664Y48045D01*
G01X71012Y47915D02*
G01X71032Y47869D01*
G01X71093Y47808D01*
G01X70664Y47808D01*
G01X73568Y51730D02*
G01X73568Y51303D01*
G01X73568Y51730D02*
G01X73705Y51730D01*
G01X73767Y51704D01*
G01X73817Y51668D01*
G01X73830Y51629D01*
G01X73855Y51568D01*
G01X73855Y51467D01*
G01X73830Y51404D01*
G01X73817Y51363D01*
G01X73767Y51318D01*
G01X73705Y51303D01*
G01X73568Y51303D01*
G01X74013Y51629D02*
G01X74013Y51651D01*
G01X74030Y51692D01*
G01X74055Y51704D01*
G01X74092Y51730D01*
G01X74167Y51730D01*
G01X74217Y51704D01*
G01X74238Y51692D01*
G01X74255Y51651D01*
G01X74255Y51604D01*
G01X74238Y51568D01*
G01X74192Y51504D01*
G01X73992Y51303D01*
G01X74280Y51303D01*
G01X74430Y51629D02*
G01X74430Y51651D01*
G01X74455Y51692D01*
G01X74467Y51704D01*
G01X74517Y51730D01*
G01X74592Y51730D01*
G01X74638Y51704D01*
G01X74655Y51692D01*
G01X74680Y51651D01*
G01X74680Y51604D01*
G01X74655Y51568D01*
G01X74617Y51504D01*
G01X74413Y51303D01*
G01X74692Y51303D01*
G01X87967Y48827D02*
G01X87538Y48827D01*
G01X87967Y48827D02*
G01X87967Y48682D01*
G01X87947Y48621D01*
G01X87906Y48577D01*
G01X87863Y48557D01*
G01X87804Y48539D01*
G01X87700Y48539D01*
G01X87638Y48557D01*
G01X87599Y48577D01*
G01X87558Y48621D01*
G01X87538Y48682D01*
G01X87538Y48827D01*
G01X87863Y48382D02*
G01X87886Y48382D01*
G01X87925Y48364D01*
G01X87947Y48339D01*
G01X87967Y48301D01*
G01X87967Y48221D01*
G01X87947Y48176D01*
G01X87925Y48157D01*
G01X87886Y48139D01*
G01X87845Y48139D01*
G01X87804Y48157D01*
G01X87742Y48201D01*
G01X87538Y48401D01*
G01X87538Y48114D01*
G01X87967Y47776D02*
G01X87681Y47982D01*
G01X87681Y47676D01*
G01X87967Y47776D02*
G01X87538Y47776D01*
G01X7294Y41252D02*
G01X6863Y41252D01*
G01X7294Y41252D02*
G01X7294Y41112D01*
G01X7275Y41050D01*
G01X7236Y41007D01*
G01X7188Y40987D01*
G01X7131Y40966D01*
G01X7025Y40966D01*
G01X6963Y40987D01*
G01X6925Y41007D01*
G01X6888Y41050D01*
G01X6863Y41112D01*
G01X6863Y41252D01*
G01X7188Y40812D02*
G01X7213Y40812D01*
G01X7250Y40790D01*
G01X7275Y40769D01*
G01X7294Y40728D01*
G01X7294Y40650D01*
G01X7275Y40606D01*
G01X7250Y40587D01*
G01X7213Y40565D01*
G01X7175Y40565D01*
G01X7131Y40587D01*
G01X7069Y40626D01*
G01X6863Y40831D01*
G01X6863Y40544D01*
G01X7294Y40164D02*
G01X7294Y40368D01*
G01X7113Y40389D01*
G01X7131Y40368D01*
G01X7150Y40307D01*
G01X7150Y40250D01*
G01X7131Y40188D01*
G01X7088Y40143D01*
G01X7025Y40125D01*
G01X6988Y40125D01*
G01X6925Y40143D01*
G01X6888Y40188D01*
G01X6863Y40250D01*
G01X6863Y40307D01*
G01X6888Y40368D01*
G01X6906Y40389D01*
G01X6950Y40412D01*
G01X14832Y41289D02*
G01X14406Y41289D01*
G01X14832Y41289D02*
G01X14832Y41152D01*
G01X14813Y41090D01*
G01X14774Y41043D01*
G01X14732Y41027D01*
G01X14669Y41002D01*
G01X14569Y41002D01*
G01X14507Y41027D01*
G01X14463Y41043D01*
G01X14426Y41090D01*
G01X14406Y41152D01*
G01X14406Y41289D01*
G01X14732Y40852D02*
G01X14751Y40852D01*
G01X14794Y40827D01*
G01X14813Y40805D01*
G01X14832Y40765D01*
G01X14832Y40690D01*
G01X14813Y40642D01*
G01X14794Y40627D01*
G01X14751Y40602D01*
G01X14713Y40602D01*
G01X14669Y40627D01*
G01X14607Y40665D01*
G01X14406Y40867D01*
G01X14406Y40580D01*
G01X14774Y40203D02*
G01X14813Y40228D01*
G01X14832Y40290D01*
G01X14832Y40328D01*
G01X14813Y40390D01*
G01X14751Y40427D01*
G01X14651Y40452D01*
G01X14549Y40452D01*
G01X14463Y40427D01*
G01X14426Y40390D01*
G01X14406Y40328D01*
G01X14406Y40303D01*
G01X14426Y40241D01*
G01X14463Y40203D01*
G01X14526Y40179D01*
G01X14549Y40179D01*
G01X14607Y40203D01*
G01X14651Y40241D01*
G01X14669Y40303D01*
G01X14669Y40328D01*
G01X14651Y40390D01*
G01X14607Y40427D01*
G01X14549Y40452D01*
G01X22375Y41215D02*
G01X21943Y41215D01*
G01X22375Y41215D02*
G01X22375Y41074D01*
G01X22352Y41012D01*
G01X22313Y40970D01*
G01X22270Y40950D01*
G01X22208Y40929D01*
G01X22107Y40929D01*
G01X22045Y40950D01*
G01X22004Y40970D01*
G01X21963Y41012D01*
G01X21943Y41074D01*
G01X21943Y41215D01*
G01X22270Y40775D02*
G01X22291Y40775D01*
G01X22332Y40753D01*
G01X22352Y40732D01*
G01X22375Y40691D01*
G01X22375Y40612D01*
G01X22352Y40569D01*
G01X22332Y40550D01*
G01X22291Y40528D01*
G01X22250Y40528D01*
G01X22208Y40550D01*
G01X22150Y40589D01*
G01X21943Y40794D01*
G01X21943Y40507D01*
G01X22375Y40087D02*
G01X21943Y40290D01*
G01X22375Y40374D02*
G01X22375Y40087D01*
G01X29836Y41326D02*
G01X29407Y41326D01*
G01X29836Y41326D02*
G01X29836Y41189D01*
G01X29816Y41127D01*
G01X29775Y41081D01*
G01X29733Y41064D01*
G01X29673Y41040D01*
G01X29570Y41040D01*
G01X29508Y41064D01*
G01X29468Y41081D01*
G01X29427Y41127D01*
G01X29407Y41189D01*
G01X29407Y41326D01*
G01X29733Y40889D02*
G01X29755Y40889D01*
G01X29795Y40864D01*
G01X29816Y40843D01*
G01X29836Y40802D01*
G01X29836Y40727D01*
G01X29816Y40680D01*
G01X29795Y40664D01*
G01X29755Y40639D01*
G01X29714Y40639D01*
G01X29673Y40664D01*
G01X29611Y40702D01*
G01X29407Y40905D01*
G01X29407Y40618D01*
G01X29836Y40381D02*
G01X29816Y40442D01*
G01X29775Y40464D01*
G01X29733Y40464D01*
G01X29693Y40442D01*
G01X29673Y40402D01*
G01X29652Y40327D01*
G01X29632Y40265D01*
G01X29591Y40217D01*
G01X29550Y40202D01*
G01X29489Y40202D01*
G01X29448Y40217D01*
G01X29427Y40240D01*
G01X29407Y40302D01*
G01X29407Y40381D01*
G01X29427Y40442D01*
G01X29448Y40464D01*
G01X29489Y40489D01*
G01X29550Y40489D01*
G01X29591Y40464D01*
G01X29632Y40427D01*
G01X29652Y40365D01*
G01X29673Y40279D01*
G01X29693Y40240D01*
G01X29733Y40217D01*
G01X29775Y40217D01*
G01X29816Y40240D01*
G01X29836Y40302D01*
G01X29836Y40381D01*
G01X37340Y41252D02*
G01X36903Y41252D01*
G01X37340Y41252D02*
G01X37340Y41115D01*
G01X37315Y41053D01*
G01X37278Y41005D01*
G01X37237Y40990D01*
G01X37178Y40965D01*
G01X37074Y40965D01*
G01X37012Y40990D01*
G01X36966Y41005D01*
G01X36928Y41053D01*
G01X36903Y41115D01*
G01X36903Y41252D01*
G01X37237Y40810D02*
G01X37253Y40810D01*
G01X37299Y40790D01*
G01X37315Y40767D01*
G01X37340Y40728D01*
G01X37340Y40653D01*
G01X37315Y40604D01*
G01X37299Y40585D01*
G01X37253Y40565D01*
G01X37215Y40565D01*
G01X37178Y40585D01*
G01X37115Y40628D01*
G01X36903Y40829D01*
G01X36903Y40542D01*
G01X37190Y40141D02*
G01X37128Y40166D01*
G01X37090Y40203D01*
G01X37074Y40266D01*
G01X37074Y40285D01*
G01X37090Y40353D01*
G01X37128Y40390D01*
G01X37190Y40410D01*
G01X37215Y40410D01*
G01X37278Y40390D01*
G01X37315Y40353D01*
G01X37340Y40285D01*
G01X37340Y40266D01*
G01X37315Y40203D01*
G01X37278Y40166D01*
G01X37190Y40141D01*
G01X37090Y40141D01*
G01X36991Y40166D01*
G01X36928Y40203D01*
G01X36903Y40266D01*
G01X36903Y40305D01*
G01X36928Y40366D01*
G01X36966Y40390D01*
G01X44837Y41252D02*
G01X44404Y41252D01*
G01X44837Y41252D02*
G01X44837Y41115D01*
G01X44816Y41053D01*
G01X44776Y41006D01*
G01X44735Y40990D01*
G01X44673Y40965D01*
G01X44571Y40965D01*
G01X44509Y40990D01*
G01X44466Y41006D01*
G01X44428Y41053D01*
G01X44404Y41115D01*
G01X44404Y41252D01*
G01X44837Y40790D02*
G01X44837Y40565D01*
G01X44673Y40690D01*
G01X44673Y40628D01*
G01X44653Y40590D01*
G01X44629Y40565D01*
G01X44571Y40543D01*
G01X44529Y40543D01*
G01X44466Y40565D01*
G01X44428Y40605D01*
G01X44404Y40666D01*
G01X44404Y40728D01*
G01X44428Y40790D01*
G01X44449Y40815D01*
G01X44490Y40830D01*
G01X44837Y40291D02*
G01X44816Y40353D01*
G01X44754Y40390D01*
G01X44653Y40415D01*
G01X44591Y40415D01*
G01X44490Y40390D01*
G01X44428Y40353D01*
G01X44404Y40291D01*
G01X44404Y40253D01*
G01X44428Y40191D01*
G01X44490Y40142D01*
G01X44591Y40128D01*
G01X44653Y40128D01*
G01X44754Y40142D01*
G01X44816Y40191D01*
G01X44837Y40253D01*
G01X44837Y40291D01*
G01X52340Y41215D02*
G01X51908Y41215D01*
G01X52340Y41215D02*
G01X52340Y41074D01*
G01X52316Y41012D01*
G01X52278Y40970D01*
G01X52233Y40953D01*
G01X52178Y40929D01*
G01X52070Y40929D01*
G01X52008Y40953D01*
G01X51970Y40970D01*
G01X51928Y41012D01*
G01X51908Y41074D01*
G01X51908Y41215D01*
G01X52340Y40753D02*
G01X52340Y40528D01*
G01X52178Y40653D01*
G01X52178Y40590D01*
G01X52153Y40549D01*
G01X52133Y40528D01*
G01X52070Y40507D01*
G01X52032Y40507D01*
G01X51970Y40528D01*
G01X51928Y40569D01*
G01X51908Y40630D01*
G01X51908Y40691D01*
G01X51928Y40753D01*
G01X51953Y40774D01*
G01X51990Y40794D01*
G01X52257Y40374D02*
G01X52278Y40331D01*
G01X52340Y40270D01*
G01X51908Y40270D01*
G01X59802Y41326D02*
G01X59373Y41326D01*
G01X59802Y41326D02*
G01X59802Y41188D01*
G01X59783Y41126D01*
G01X59740Y41081D01*
G01X59700Y41063D01*
G01X59639Y41040D01*
G01X59537Y41040D01*
G01X59475Y41063D01*
G01X59434Y41081D01*
G01X59391Y41126D01*
G01X59373Y41188D01*
G01X59373Y41326D01*
G01X59802Y40864D02*
G01X59802Y40639D01*
G01X59639Y40763D01*
G01X59639Y40701D01*
G01X59616Y40663D01*
G01X59598Y40639D01*
G01X59537Y40618D01*
G01X59496Y40618D01*
G01X59434Y40639D01*
G01X59391Y40680D01*
G01X59373Y40741D01*
G01X59373Y40802D01*
G01X59391Y40864D01*
G01X59414Y40888D01*
G01X59454Y40905D01*
G01X59700Y40463D02*
G01X59721Y40463D01*
G01X59762Y40442D01*
G01X59783Y40426D01*
G01X59802Y40381D01*
G01X59802Y40301D01*
G01X59783Y40264D01*
G01X59762Y40239D01*
G01X59721Y40217D01*
G01X59679Y40217D01*
G01X59639Y40239D01*
G01X59577Y40279D01*
G01X59373Y40488D01*
G01X59373Y40201D01*
G01X67340Y41289D02*
G01X66911Y41289D01*
G01X67340Y41289D02*
G01X67340Y41150D01*
G01X67320Y41088D01*
G01X67279Y41044D01*
G01X67238Y41025D01*
G01X67177Y41003D01*
G01X67075Y41003D01*
G01X67013Y41025D01*
G01X66972Y41044D01*
G01X66931Y41088D01*
G01X66911Y41150D01*
G01X66911Y41289D01*
G01X67340Y40827D02*
G01X67340Y40602D01*
G01X67177Y40725D01*
G01X67177Y40663D01*
G01X67156Y40625D01*
G01X67136Y40602D01*
G01X67075Y40581D01*
G01X67034Y40581D01*
G01X66972Y40602D01*
G01X66931Y40643D01*
G01X66911Y40704D01*
G01X66911Y40765D01*
G01X66931Y40827D01*
G01X66952Y40850D01*
G01X66993Y40868D01*
G01X67340Y40405D02*
G01X67340Y40180D01*
G01X67177Y40303D01*
G01X67177Y40242D01*
G01X67156Y40201D01*
G01X67136Y40180D01*
G01X67075Y40163D01*
G01X67034Y40163D01*
G01X66972Y40180D01*
G01X66931Y40226D01*
G01X66911Y40288D01*
G01X66911Y40344D01*
G01X66931Y40405D01*
G01X66952Y40426D01*
G01X66993Y40450D01*
G01X74842Y41253D02*
G01X74407Y41253D01*
G01X74842Y41253D02*
G01X74842Y41110D01*
G01X74817Y41049D01*
G01X74780Y41007D01*
G01X74734Y40986D01*
G01X74673Y40967D01*
G01X74571Y40967D01*
G01X74509Y40986D01*
G01X74468Y41007D01*
G01X74430Y41049D01*
G01X74407Y41110D01*
G01X74407Y41253D01*
G01X74842Y40791D02*
G01X74842Y40566D01*
G01X74673Y40687D01*
G01X74673Y40626D01*
G01X74655Y40586D01*
G01X74632Y40566D01*
G01X74571Y40545D01*
G01X74530Y40545D01*
G01X74468Y40566D01*
G01X74430Y40606D01*
G01X74407Y40668D01*
G01X74407Y40728D01*
G01X74430Y40791D01*
G01X74448Y40811D01*
G01X74492Y40831D01*
G01X74842Y40205D02*
G01X74555Y40410D01*
G01X74555Y40102D01*
G01X74842Y40205D02*
G01X74407Y40205D01*
G01X77711Y36723D02*
G01X77711Y36296D01*
G01X77711Y36723D02*
G01X77853Y36723D01*
G01X77915Y36705D01*
G01X77956Y36669D01*
G01X77977Y36623D01*
G01X77997Y36561D01*
G01X77997Y36460D01*
G01X77977Y36398D01*
G01X77956Y36355D01*
G01X77915Y36319D01*
G01X77853Y36296D01*
G01X77711Y36296D01*
G01X78173Y36723D02*
G01X78398Y36723D01*
G01X78276Y36561D01*
G01X78337Y36561D01*
G01X78377Y36544D01*
G01X78398Y36521D01*
G01X78419Y36460D01*
G01X78419Y36419D01*
G01X78398Y36355D01*
G01X78357Y36319D01*
G01X78296Y36296D01*
G01X78235Y36296D01*
G01X78173Y36319D01*
G01X78152Y36336D01*
G01X78132Y36380D01*
G01X78799Y36723D02*
G01X78595Y36723D01*
G01X78574Y36544D01*
G01X78595Y36561D01*
G01X78656Y36580D01*
G01X78716Y36580D01*
G01X78778Y36561D01*
G01X78820Y36521D01*
G01X78840Y36460D01*
G01X78840Y36419D01*
G01X78820Y36355D01*
G01X78778Y36319D01*
G01X78716Y36296D01*
G01X78656Y36296D01*
G01X78595Y36319D01*
G01X78574Y36336D01*
G01X78553Y36380D01*
G01X85360Y36730D02*
G01X85360Y36296D01*
G01X85360Y36730D02*
G01X85497Y36730D01*
G01X85560Y36709D01*
G01X85610Y36669D01*
G01X85622Y36621D01*
G01X85647Y36567D01*
G01X85647Y36459D01*
G01X85622Y36396D01*
G01X85610Y36359D01*
G01X85560Y36321D01*
G01X85497Y36296D01*
G01X85360Y36296D01*
G01X85822Y36730D02*
G01X86047Y36730D01*
G01X85922Y36567D01*
G01X85985Y36567D01*
G01X86022Y36546D01*
G01X86047Y36521D01*
G01X86072Y36459D01*
G01X86072Y36421D01*
G01X86047Y36359D01*
G01X86010Y36321D01*
G01X85947Y36296D01*
G01X85885Y36296D01*
G01X85822Y36321D01*
G01X85797Y36342D01*
G01X85785Y36383D01*
G01X86447Y36669D02*
G01X86422Y36709D01*
G01X86360Y36730D01*
G01X86322Y36730D01*
G01X86260Y36709D01*
G01X86222Y36646D01*
G01X86197Y36546D01*
G01X86197Y36444D01*
G01X86222Y36359D01*
G01X86260Y36321D01*
G01X86322Y36296D01*
G01X86347Y36296D01*
G01X86410Y36321D01*
G01X86447Y36359D01*
G01X86472Y36421D01*
G01X86472Y36444D01*
G01X86447Y36505D01*
G01X86410Y36546D01*
G01X86347Y36567D01*
G01X86322Y36567D01*
G01X86260Y36546D01*
G01X86222Y36505D01*
G01X86197Y36444D01*
G01X8276Y33714D02*
G01X7841Y33714D01*
G01X8276Y33714D02*
G01X8276Y33577D01*
G01X8254Y33514D01*
G01X8213Y33464D01*
G01X8166Y33452D01*
G01X8112Y33427D01*
G01X8003Y33427D01*
G01X7941Y33452D01*
G01X7903Y33464D01*
G01X7866Y33514D01*
G01X7841Y33577D01*
G01X7841Y33714D01*
G01X8276Y33252D02*
G01X8276Y33027D01*
G01X8112Y33152D01*
G01X8112Y33089D01*
G01X8091Y33052D01*
G01X8066Y33027D01*
G01X8003Y33002D01*
G01X7966Y33002D01*
G01X7903Y33027D01*
G01X7866Y33064D01*
G01X7841Y33127D01*
G01X7841Y33189D01*
G01X7866Y33252D01*
G01X7888Y33277D01*
G01X7928Y33289D01*
G01X8276Y32589D02*
G01X7841Y32789D01*
G01X8276Y32877D02*
G01X8276Y32589D01*
G01X10146Y33862D02*
G01X9716Y33862D01*
G01X10146Y33862D02*
G01X10146Y33724D01*
G01X10126Y33662D01*
G01X10085Y33616D01*
G01X10043Y33599D01*
G01X9983Y33574D01*
G01X9881Y33574D01*
G01X9818Y33599D01*
G01X9778Y33616D01*
G01X9737Y33662D01*
G01X9716Y33724D01*
G01X9716Y33862D01*
G01X10146Y33399D02*
G01X10146Y33174D01*
G01X9983Y33299D01*
G01X9983Y33237D01*
G01X9962Y33199D01*
G01X9941Y33174D01*
G01X9881Y33154D01*
G01X9840Y33154D01*
G01X9778Y33174D01*
G01X9737Y33216D01*
G01X9716Y33275D01*
G01X9716Y33337D01*
G01X9737Y33399D01*
G01X9758Y33424D01*
G01X9799Y33441D01*
G01X10146Y32916D02*
G01X10126Y32979D01*
G01X10085Y32999D01*
G01X10043Y32999D01*
G01X10003Y32979D01*
G01X9983Y32937D01*
G01X9962Y32862D01*
G01X9941Y32799D01*
G01X9901Y32753D01*
G01X9860Y32737D01*
G01X9799Y32737D01*
G01X9758Y32753D01*
G01X9737Y32774D01*
G01X9716Y32837D01*
G01X9716Y32916D01*
G01X9737Y32979D01*
G01X9758Y32999D01*
G01X9799Y33024D01*
G01X9860Y33024D01*
G01X9901Y32999D01*
G01X9941Y32962D01*
G01X9962Y32899D01*
G01X9983Y32816D01*
G01X10003Y32774D01*
G01X10043Y32753D01*
G01X10085Y32753D01*
G01X10126Y32774D01*
G01X10146Y32837D01*
G01X10146Y32916D01*
G01X19483Y33714D02*
G01X19056Y33714D01*
G01X19483Y33714D02*
G01X19483Y33573D01*
G01X19464Y33511D01*
G01X19420Y33469D01*
G01X19383Y33448D01*
G01X19320Y33428D01*
G01X19220Y33428D01*
G01X19158Y33448D01*
G01X19114Y33469D01*
G01X19076Y33511D01*
G01X19056Y33573D01*
G01X19056Y33714D01*
G01X19483Y33252D02*
G01X19483Y33027D01*
G01X19320Y33149D01*
G01X19320Y33088D01*
G01X19301Y33048D01*
G01X19281Y33027D01*
G01X19220Y33005D01*
G01X19177Y33005D01*
G01X19114Y33027D01*
G01X19076Y33067D01*
G01X19056Y33129D01*
G01X19056Y33190D01*
G01X19076Y33252D01*
G01X19095Y33273D01*
G01X19138Y33292D01*
G01X19339Y32604D02*
G01X19281Y32626D01*
G01X19239Y32666D01*
G01X19220Y32727D01*
G01X19220Y32749D01*
G01X19239Y32811D01*
G01X19281Y32851D01*
G01X19339Y32873D01*
G01X19363Y32873D01*
G01X19420Y32851D01*
G01X19464Y32811D01*
G01X19483Y32749D01*
G01X19483Y32727D01*
G01X19464Y32666D01*
G01X19420Y32626D01*
G01X19339Y32604D01*
G01X19239Y32604D01*
G01X19138Y32626D01*
G01X19076Y32666D01*
G01X19056Y32727D01*
G01X19056Y32769D01*
G01X19076Y32829D01*
G01X19114Y32851D01*
G01X28898Y33714D02*
G01X28469Y33714D01*
G01X28898Y33714D02*
G01X28898Y33575D01*
G01X28877Y33513D01*
G01X28837Y33469D01*
G01X28795Y33450D01*
G01X28735Y33429D01*
G01X28632Y33429D01*
G01X28570Y33450D01*
G01X28530Y33469D01*
G01X28488Y33513D01*
G01X28469Y33575D01*
G01X28469Y33714D01*
G01X28898Y33088D02*
G01X28612Y33294D01*
G01X28612Y32988D01*
G01X28898Y33088D02*
G01X28469Y33088D01*
G01X28898Y32729D02*
G01X28877Y32789D01*
G01X28817Y32830D01*
G01X28713Y32851D01*
G01X28652Y32851D01*
G01X28550Y32830D01*
G01X28488Y32789D01*
G01X28469Y32729D01*
G01X28469Y32688D01*
G01X28488Y32626D01*
G01X28550Y32588D01*
G01X28652Y32564D01*
G01X28713Y32564D01*
G01X28817Y32588D01*
G01X28877Y32626D01*
G01X28898Y32688D01*
G01X28898Y32729D01*
G01X36401Y33750D02*
G01X35966Y33750D01*
G01X36401Y33750D02*
G01X36401Y33612D01*
G01X36378Y33550D01*
G01X36339Y33500D01*
G01X36291Y33487D01*
G01X36238Y33462D01*
G01X36128Y33462D01*
G01X36066Y33487D01*
G01X36028Y33500D01*
G01X35991Y33550D01*
G01X35966Y33612D01*
G01X35966Y33750D01*
G01X36401Y33125D02*
G01X36114Y33325D01*
G01X36114Y33025D01*
G01X36401Y33125D02*
G01X35966Y33125D01*
G01X36291Y32862D02*
G01X36316Y32862D01*
G01X36353Y32850D01*
G01X36378Y32825D01*
G01X36401Y32787D01*
G01X36401Y32700D01*
G01X36378Y32663D01*
G01X36353Y32638D01*
G01X36316Y32625D01*
G01X36278Y32625D01*
G01X36238Y32638D01*
G01X36175Y32688D01*
G01X35966Y32887D01*
G01X35966Y32600D01*
G01X58900Y33788D02*
G01X58471Y33788D01*
G01X58900Y33788D02*
G01X58900Y33642D01*
G01X58879Y33580D01*
G01X58839Y33541D01*
G01X58798Y33525D01*
G01X58737Y33500D01*
G01X58635Y33500D01*
G01X58573Y33525D01*
G01X58532Y33541D01*
G01X58491Y33580D01*
G01X58471Y33642D01*
G01X58471Y33788D01*
G01X58900Y33163D02*
G01X58614Y33366D01*
G01X58614Y33063D01*
G01X58900Y33163D02*
G01X58471Y33163D01*
G01X58900Y32677D02*
G01X58900Y32880D01*
G01X58716Y32902D01*
G01X58737Y32880D01*
G01X58757Y32825D01*
G01X58757Y32763D01*
G01X58737Y32700D01*
G01X58696Y32655D01*
G01X58635Y32638D01*
G01X58594Y32638D01*
G01X58532Y32655D01*
G01X58491Y32700D01*
G01X58471Y32763D01*
G01X58471Y32825D01*
G01X58491Y32880D01*
G01X58512Y32902D01*
G01X58553Y32925D01*
G01X67306Y33751D02*
G01X66870Y33751D01*
G01X67306Y33751D02*
G01X67306Y33612D01*
G01X67281Y33549D01*
G01X67243Y33507D01*
G01X67195Y33487D01*
G01X67143Y33465D01*
G01X67032Y33465D01*
G01X66970Y33487D01*
G01X66932Y33507D01*
G01X66893Y33549D01*
G01X66870Y33612D01*
G01X66870Y33751D01*
G01X67306Y33125D02*
G01X67018Y33332D01*
G01X67018Y33024D01*
G01X67306Y33125D02*
G01X66870Y33125D01*
G01X67243Y32645D02*
G01X67281Y32663D01*
G01X67306Y32724D01*
G01X67306Y32764D01*
G01X67281Y32826D01*
G01X67219Y32870D01*
G01X67118Y32888D01*
G01X67018Y32888D01*
G01X66932Y32870D01*
G01X66893Y32826D01*
G01X66870Y32764D01*
G01X66870Y32749D01*
G01X66893Y32686D01*
G01X66932Y32645D01*
G01X66994Y32624D01*
G01X67018Y32624D01*
G01X67081Y32645D01*
G01X67118Y32686D01*
G01X67143Y32749D01*
G01X67143Y32764D01*
G01X67118Y32826D01*
G01X67081Y32870D01*
G01X67018Y32888D01*
G01X74832Y33862D02*
G01X74405Y33862D01*
G01X74832Y33862D02*
G01X74832Y33725D01*
G01X74816Y33662D01*
G01X74781Y33612D01*
G01X74731Y33600D01*
G01X74670Y33575D01*
G01X74566Y33575D01*
G01X74505Y33600D01*
G01X74468Y33612D01*
G01X74430Y33662D01*
G01X74405Y33725D01*
G01X74405Y33862D01*
G01X74832Y33237D02*
G01X74556Y33437D01*
G01X74556Y33137D01*
G01X74832Y33237D02*
G01X74405Y33237D01*
G01X74832Y32712D02*
G01X74405Y32912D01*
G01X74832Y33000D02*
G01X74832Y32712D01*
G01X612Y58007D02*
G01X612Y57579D01*
G01X612Y58007D02*
G01X776Y57579D01*
G01X940Y58007D02*
G01X776Y57579D01*
G01X940Y58007D02*
G01X940Y57579D01*
G01X1075Y58007D02*
G01X1362Y57579D01*
G01X1362Y58007D02*
G01X1075Y57579D01*
G01X1497Y57927D02*
G01X1537Y57947D01*
G01X1598Y58007D01*
G01X1598Y57579D01*
G01X8115Y57979D02*
G01X8115Y57551D01*
G01X8115Y57979D02*
G01X8278Y57551D01*
G01X8441Y57979D02*
G01X8278Y57551D01*
G01X8441Y57979D02*
G01X8441Y57551D01*
G01X8577Y57979D02*
G01X8863Y57551D01*
G01X8863Y57979D02*
G01X8577Y57551D01*
G01X9019Y57878D02*
G01X9019Y57899D01*
G01X9040Y57940D01*
G01X9059Y57960D01*
G01X9100Y57979D01*
G01X9183Y57979D01*
G01X9224Y57960D01*
G01X9244Y57940D01*
G01X9265Y57899D01*
G01X9265Y57857D01*
G01X9244Y57817D01*
G01X9203Y57754D01*
G01X8999Y57551D01*
G01X9284Y57551D01*
G01X15672Y57968D02*
G01X15672Y57539D01*
G01X15672Y57968D02*
G01X15837Y57539D01*
G01X16000Y57968D02*
G01X15837Y57539D01*
G01X16000Y57968D02*
G01X16000Y57539D01*
G01X16135Y57968D02*
G01X16422Y57539D01*
G01X16422Y57968D02*
G01X16135Y57539D01*
G01X16598Y57968D02*
G01X16823Y57968D01*
G01X16700Y57804D01*
G01X16761Y57804D01*
G01X16802Y57783D01*
G01X16823Y57764D01*
G01X16843Y57703D01*
G01X16843Y57662D01*
G01X16823Y57600D01*
G01X16782Y57558D01*
G01X16720Y57539D01*
G01X16659Y57539D01*
G01X16598Y57558D01*
G01X16577Y57579D01*
G01X16557Y57621D01*
G01X23210Y57930D02*
G01X23210Y57502D01*
G01X23210Y57930D02*
G01X23374Y57502D01*
G01X23537Y57930D02*
G01X23374Y57502D01*
G01X23537Y57930D02*
G01X23537Y57502D01*
G01X23672Y57930D02*
G01X23958Y57502D01*
G01X23958Y57930D02*
G01X23672Y57502D01*
G01X24298Y57930D02*
G01X24094Y57645D01*
G01X24400Y57645D01*
G01X24298Y57930D02*
G01X24298Y57502D01*
G01X30711Y57931D02*
G01X30711Y57503D01*
G01X30711Y57931D02*
G01X30875Y57503D01*
G01X31038Y57931D02*
G01X30875Y57503D01*
G01X31038Y57931D02*
G01X31038Y57503D01*
G01X31173Y57931D02*
G01X31460Y57503D01*
G01X31460Y57931D02*
G01X31173Y57503D01*
G01X31839Y57931D02*
G01X31636Y57931D01*
G01X31614Y57748D01*
G01X31636Y57769D01*
G01X31697Y57789D01*
G01X31758Y57789D01*
G01X31820Y57769D01*
G01X31861Y57728D01*
G01X31881Y57667D01*
G01X31881Y57626D01*
G01X31861Y57564D01*
G01X31820Y57523D01*
G01X31758Y57503D01*
G01X31697Y57503D01*
G01X31636Y57523D01*
G01X31614Y57544D01*
G01X31595Y57585D01*
G01X38210Y57895D02*
G01X38210Y57466D01*
G01X38210Y57895D02*
G01X38374Y57466D01*
G01X38537Y57895D02*
G01X38374Y57466D01*
G01X38537Y57895D02*
G01X38537Y57466D01*
G01X38672Y57895D02*
G01X38959Y57466D01*
G01X38959Y57895D02*
G01X38672Y57466D01*
G01X39339Y57833D02*
G01X39319Y57875D01*
G01X39257Y57895D01*
G01X39216Y57895D01*
G01X39155Y57875D01*
G01X39114Y57814D01*
G01X39094Y57711D01*
G01X39094Y57608D01*
G01X39114Y57527D01*
G01X39155Y57486D01*
G01X39216Y57466D01*
G01X39237Y57466D01*
G01X39298Y57486D01*
G01X39339Y57527D01*
G01X39360Y57589D01*
G01X39360Y57608D01*
G01X39339Y57670D01*
G01X39298Y57711D01*
G01X39237Y57731D01*
G01X39216Y57731D01*
G01X39155Y57711D01*
G01X39114Y57670D01*
G01X39094Y57608D01*
G01X45747Y57968D02*
G01X45747Y57539D01*
G01X45747Y57968D02*
G01X45911Y57539D01*
G01X46074Y57968D02*
G01X45911Y57539D01*
G01X46074Y57968D02*
G01X46074Y57539D01*
G01X46209Y57968D02*
G01X46496Y57539D01*
G01X46496Y57968D02*
G01X46209Y57539D01*
G01X46916Y57968D02*
G01X46712Y57539D01*
G01X46630Y57968D02*
G01X46916Y57968D01*
G01X53323Y57904D02*
G01X53323Y57476D01*
G01X53323Y57904D02*
G01X53487Y57476D01*
G01X53650Y57904D02*
G01X53487Y57476D01*
G01X53650Y57904D02*
G01X53650Y57476D01*
G01X53785Y57904D02*
G01X54072Y57476D01*
G01X54072Y57904D02*
G01X53785Y57476D01*
G01X54309Y57904D02*
G01X54248Y57886D01*
G01X54227Y57844D01*
G01X54227Y57803D01*
G01X54248Y57762D01*
G01X54288Y57742D01*
G01X54370Y57721D01*
G01X54432Y57701D01*
G01X54473Y57661D01*
G01X54492Y57619D01*
G01X54492Y57557D01*
G01X54473Y57517D01*
G01X54452Y57496D01*
G01X54391Y57476D01*
G01X54309Y57476D01*
G01X54248Y57496D01*
G01X54227Y57517D01*
G01X54207Y57557D01*
G01X54207Y57619D01*
G01X54227Y57661D01*
G01X54267Y57701D01*
G01X54329Y57721D01*
G01X54411Y57742D01*
G01X54452Y57762D01*
G01X54473Y57803D01*
G01X54473Y57844D01*
G01X54452Y57886D01*
G01X54391Y57904D01*
G01X54309Y57904D01*
G01X60846Y57878D02*
G01X60846Y57449D01*
G01X60846Y57878D02*
G01X61010Y57449D01*
G01X61173Y57878D02*
G01X61010Y57449D01*
G01X61173Y57878D02*
G01X61173Y57449D01*
G01X61308Y57878D02*
G01X61595Y57449D01*
G01X61595Y57878D02*
G01X61308Y57449D01*
G01X61996Y57735D02*
G01X61975Y57674D01*
G01X61934Y57632D01*
G01X61873Y57613D01*
G01X61852Y57613D01*
G01X61791Y57632D01*
G01X61750Y57674D01*
G01X61729Y57735D01*
G01X61729Y57755D01*
G01X61750Y57817D01*
G01X61791Y57857D01*
G01X61852Y57878D01*
G01X61873Y57878D01*
G01X61934Y57857D01*
G01X61975Y57817D01*
G01X61996Y57735D01*
G01X61996Y57632D01*
G01X61975Y57530D01*
G01X61934Y57469D01*
G01X61873Y57449D01*
G01X61832Y57449D01*
G01X61771Y57469D01*
G01X61750Y57510D01*
G01X68299Y57929D02*
G01X68299Y57501D01*
G01X68299Y57929D02*
G01X68463Y57501D01*
G01X68626Y57929D02*
G01X68463Y57501D01*
G01X68626Y57929D02*
G01X68626Y57501D01*
G01X68761Y57929D02*
G01X69048Y57501D01*
G01X69048Y57929D02*
G01X68761Y57501D01*
G01X69183Y57849D02*
G01X69224Y57869D01*
G01X69285Y57929D01*
G01X69285Y57501D01*
G01X69543Y57929D02*
G01X69481Y57910D01*
G01X69440Y57849D01*
G01X69420Y57746D01*
G01X69420Y57685D01*
G01X69440Y57582D01*
G01X69481Y57521D01*
G01X69543Y57501D01*
G01X69584Y57501D01*
G01X69645Y57521D01*
G01X69686Y57582D01*
G01X69706Y57685D01*
G01X69706Y57746D01*
G01X69686Y57849D01*
G01X69645Y57910D01*
G01X69584Y57929D01*
G01X69543Y57929D01*
G01X75747Y57829D02*
G01X75747Y57400D01*
G01X75747Y57829D02*
G01X75911Y57400D01*
G01X76074Y57829D02*
G01X75911Y57400D01*
G01X76074Y57829D02*
G01X76074Y57400D01*
G01X76209Y57829D02*
G01X76496Y57400D01*
G01X76496Y57829D02*
G01X76209Y57400D01*
G01X76631Y57749D02*
G01X76672Y57769D01*
G01X76733Y57829D01*
G01X76733Y57400D01*
G01X76868Y57749D02*
G01X76909Y57769D01*
G01X76970Y57829D01*
G01X76970Y57400D01*
G01X83230Y57855D02*
G01X83230Y57428D01*
G01X83230Y57855D02*
G01X83394Y57428D01*
G01X83557Y57855D02*
G01X83394Y57428D01*
G01X83557Y57855D02*
G01X83557Y57428D01*
G01X83692Y57855D02*
G01X83979Y57428D01*
G01X83979Y57855D02*
G01X83692Y57428D01*
G01X84114Y57775D02*
G01X84155Y57795D01*
G01X84216Y57855D01*
G01X84216Y57428D01*
G01X84371Y57754D02*
G01X84371Y57775D01*
G01X84392Y57817D01*
G01X84412Y57837D01*
G01X84453Y57855D01*
G01X84535Y57855D01*
G01X84576Y57837D01*
G01X84596Y57817D01*
G01X84617Y57775D01*
G01X84617Y57733D01*
G01X84596Y57693D01*
G01X84555Y57630D01*
G01X84351Y57428D01*
G01X84637Y57428D01*
G01X2598Y50356D02*
G01X2598Y49927D01*
G01X2598Y50356D02*
G01X2761Y49927D01*
G01X2925Y50356D02*
G01X2761Y49927D01*
G01X2925Y50356D02*
G01X2925Y49927D01*
G01X3059Y50356D02*
G01X3347Y49927D01*
G01X3347Y50356D02*
G01X3059Y49927D01*
G01X3481Y50275D02*
G01X3523Y50295D01*
G01X3584Y50356D01*
G01X3584Y49927D01*
G01X3759Y50356D02*
G01X3984Y50356D01*
G01X3861Y50193D01*
G01X3923Y50193D01*
G01X3964Y50172D01*
G01X3984Y50152D01*
G01X4004Y50091D01*
G01X4004Y50050D01*
G01X3984Y49988D01*
G01X3944Y49947D01*
G01X3883Y49927D01*
G01X3820Y49927D01*
G01X3759Y49947D01*
G01X3739Y49968D01*
G01X3719Y50009D01*
G01X11974Y50393D02*
G01X11974Y49964D01*
G01X11974Y50393D02*
G01X12138Y49964D01*
G01X12301Y50393D02*
G01X12138Y49964D01*
G01X12301Y50393D02*
G01X12301Y49964D01*
G01X12436Y50393D02*
G01X12722Y49964D01*
G01X12722Y50393D02*
G01X12436Y49964D01*
G01X12858Y50312D02*
G01X12899Y50332D01*
G01X12960Y50393D01*
G01X12960Y49964D01*
G01X13299Y50393D02*
G01X13094Y50107D01*
G01X13402Y50107D01*
G01X13299Y50393D02*
G01X13299Y49964D01*
G01X19402Y50394D02*
G01X19402Y49965D01*
G01X19402Y50394D02*
G01X19566Y49965D01*
G01X19729Y50394D02*
G01X19566Y49965D01*
G01X19729Y50394D02*
G01X19729Y49965D01*
G01X19864Y50394D02*
G01X20151Y49965D01*
G01X20151Y50394D02*
G01X19864Y49965D01*
G01X20286Y50313D02*
G01X20327Y50333D01*
G01X20388Y50394D01*
G01X20388Y49965D01*
G01X20768Y50394D02*
G01X20564Y50394D01*
G01X20543Y50210D01*
G01X20564Y50231D01*
G01X20625Y50251D01*
G01X20687Y50251D01*
G01X20748Y50231D01*
G01X20789Y50190D01*
G01X20808Y50129D01*
G01X20808Y50088D01*
G01X20789Y50026D01*
G01X20748Y49985D01*
G01X20687Y49965D01*
G01X20625Y49965D01*
G01X20564Y49985D01*
G01X20543Y50006D01*
G01X20523Y50047D01*
G01X26938Y50392D02*
G01X26938Y49963D01*
G01X26938Y50392D02*
G01X27102Y49963D01*
G01X27264Y50392D02*
G01X27102Y49963D01*
G01X27264Y50392D02*
G01X27264Y49963D01*
G01X27400Y50392D02*
G01X27687Y49963D01*
G01X27687Y50392D02*
G01X27400Y49963D01*
G01X27822Y50311D02*
G01X27863Y50331D01*
G01X27924Y50392D01*
G01X27924Y49963D01*
G01X28304Y50331D02*
G01X28283Y50372D01*
G01X28223Y50392D01*
G01X28182Y50392D01*
G01X28120Y50372D01*
G01X28079Y50311D01*
G01X28058Y50208D01*
G01X28058Y50106D01*
G01X28079Y50024D01*
G01X28120Y49983D01*
G01X28182Y49963D01*
G01X28202Y49963D01*
G01X28263Y49983D01*
G01X28304Y50024D01*
G01X28325Y50086D01*
G01X28325Y50106D01*
G01X28304Y50167D01*
G01X28263Y50208D01*
G01X28202Y50229D01*
G01X28182Y50229D01*
G01X28120Y50208D01*
G01X28079Y50167D01*
G01X28058Y50106D01*
G01X34439Y50393D02*
G01X34439Y49964D01*
G01X34439Y50393D02*
G01X34603Y49964D01*
G01X34766Y50393D02*
G01X34603Y49964D01*
G01X34766Y50393D02*
G01X34766Y49964D01*
G01X34901Y50393D02*
G01X35188Y49964D01*
G01X35188Y50393D02*
G01X34901Y49964D01*
G01X35323Y50312D02*
G01X35364Y50332D01*
G01X35425Y50393D01*
G01X35425Y49964D01*
G01X35846Y50393D02*
G01X35642Y49964D01*
G01X35560Y50393D02*
G01X35846Y50393D01*
G01X42014Y50393D02*
G01X42014Y49964D01*
G01X42014Y50393D02*
G01X42178Y49964D01*
G01X42341Y50393D02*
G01X42178Y49964D01*
G01X42341Y50393D02*
G01X42341Y49964D01*
G01X42476Y50393D02*
G01X42763Y49964D01*
G01X42763Y50393D02*
G01X42476Y49964D01*
G01X42898Y50312D02*
G01X42939Y50332D01*
G01X43000Y50393D01*
G01X43000Y49964D01*
G01X43237Y50393D02*
G01X43176Y50373D01*
G01X43154Y50332D01*
G01X43154Y50291D01*
G01X43176Y50250D01*
G01X43216Y50230D01*
G01X43299Y50209D01*
G01X43360Y50189D01*
G01X43401Y50148D01*
G01X43421Y50107D01*
G01X43421Y50046D01*
G01X43401Y50005D01*
G01X43379Y49984D01*
G01X43319Y49964D01*
G01X43237Y49964D01*
G01X43176Y49984D01*
G01X43154Y50005D01*
G01X43135Y50046D01*
G01X43135Y50107D01*
G01X43154Y50148D01*
G01X43196Y50189D01*
G01X43258Y50209D01*
G01X43339Y50230D01*
G01X43379Y50250D01*
G01X43401Y50291D01*
G01X43401Y50332D01*
G01X43379Y50373D01*
G01X43319Y50393D01*
G01X43237Y50393D01*
G01X49441Y50468D02*
G01X49441Y50039D01*
G01X49441Y50468D02*
G01X49604Y50039D01*
G01X49767Y50468D02*
G01X49604Y50039D01*
G01X49767Y50468D02*
G01X49767Y50039D01*
G01X49903Y50468D02*
G01X50190Y50039D01*
G01X50190Y50468D02*
G01X49903Y50039D01*
G01X50325Y50387D02*
G01X50366Y50407D01*
G01X50427Y50468D01*
G01X50427Y50039D01*
G01X50828Y50325D02*
G01X50807Y50264D01*
G01X50766Y50223D01*
G01X50704Y50203D01*
G01X50685Y50203D01*
G01X50623Y50223D01*
G01X50582Y50264D01*
G01X50562Y50325D01*
G01X50562Y50346D01*
G01X50582Y50407D01*
G01X50623Y50448D01*
G01X50685Y50468D01*
G01X50704Y50468D01*
G01X50766Y50448D01*
G01X50807Y50407D01*
G01X50828Y50325D01*
G01X50828Y50223D01*
G01X50807Y50121D01*
G01X50766Y50059D01*
G01X50704Y50039D01*
G01X50664Y50039D01*
G01X50603Y50059D01*
G01X50582Y50100D01*
G01X56998Y50378D02*
G01X56998Y49949D01*
G01X56998Y50378D02*
G01X57160Y49949D01*
G01X57323Y50378D02*
G01X57160Y49949D01*
G01X57323Y50378D02*
G01X57323Y49949D01*
G01X57460Y50378D02*
G01X57748Y49949D01*
G01X57748Y50378D02*
G01X57460Y49949D01*
G01X57899Y50276D02*
G01X57899Y50297D01*
G01X57923Y50338D01*
G01X57942Y50358D01*
G01X57985Y50378D01*
G01X58061Y50378D01*
G01X58110Y50358D01*
G01X58124Y50338D01*
G01X58148Y50297D01*
G01X58148Y50256D01*
G01X58124Y50215D01*
G01X58086Y50153D01*
G01X57885Y49949D01*
G01X58167Y49949D01*
G01X58424Y50378D02*
G01X58361Y50358D01*
G01X58324Y50297D01*
G01X58299Y50194D01*
G01X58299Y50133D01*
G01X58324Y50031D01*
G01X58361Y49969D01*
G01X58424Y49949D01*
G01X58462Y49949D01*
G01X58524Y49969D01*
G01X58573Y50031D01*
G01X58586Y50133D01*
G01X58586Y50194D01*
G01X58573Y50297D01*
G01X58524Y50358D01*
G01X58462Y50378D01*
G01X58424Y50378D01*
G01X64554Y50347D02*
G01X64554Y49918D01*
G01X64554Y50347D02*
G01X64716Y49918D01*
G01X64879Y50347D02*
G01X64716Y49918D01*
G01X64879Y50347D02*
G01X64879Y49918D01*
G01X65016Y50347D02*
G01X65304Y49918D01*
G01X65304Y50347D02*
G01X65016Y49918D01*
G01X65454Y50245D02*
G01X65454Y50266D01*
G01X65479Y50307D01*
G01X65503Y50327D01*
G01X65542Y50347D01*
G01X65617Y50347D01*
G01X65666Y50327D01*
G01X65679Y50307D01*
G01X65704Y50266D01*
G01X65704Y50225D01*
G01X65679Y50184D01*
G01X65642Y50122D01*
G01X65441Y49918D01*
G01X65728Y49918D01*
G01X65854Y50266D02*
G01X65904Y50286D01*
G01X65958Y50347D01*
G01X65958Y49918D01*
G01X72068Y50387D02*
G01X72068Y49959D01*
G01X72068Y50387D02*
G01X72238Y49959D01*
G01X72401Y50387D02*
G01X72238Y49959D01*
G01X72401Y50387D02*
G01X72401Y49959D01*
G01X72530Y50387D02*
G01X72818Y49959D01*
G01X72818Y50387D02*
G01X72530Y49959D01*
G01X72979Y50286D02*
G01X72979Y50306D01*
G01X72993Y50348D01*
G01X73017Y50368D01*
G01X73055Y50387D01*
G01X73141Y50387D01*
G01X73179Y50368D01*
G01X73204Y50348D01*
G01X73218Y50306D01*
G01X73218Y50266D01*
G01X73204Y50224D01*
G01X73156Y50162D01*
G01X72954Y49959D01*
G01X73242Y49959D01*
G01X73393Y50286D02*
G01X73393Y50306D01*
G01X73417Y50348D01*
G01X73441Y50368D01*
G01X73479Y50387D01*
G01X73563Y50387D01*
G01X73604Y50368D01*
G01X73618Y50348D01*
G01X73642Y50306D01*
G01X73642Y50266D01*
G01X73618Y50224D01*
G01X73579Y50162D01*
G01X73379Y49959D01*
G01X73666Y49959D01*
G01X81428Y50319D02*
G01X81428Y49890D01*
G01X81428Y50319D02*
G01X81592Y49890D01*
G01X81755Y50319D02*
G01X81592Y49890D01*
G01X81755Y50319D02*
G01X81755Y49890D01*
G01X81890Y50319D02*
G01X82177Y49890D01*
G01X82177Y50319D02*
G01X81890Y49890D01*
G01X82332Y50217D02*
G01X82332Y50238D01*
G01X82353Y50279D01*
G01X82373Y50299D01*
G01X82414Y50319D01*
G01X82496Y50319D01*
G01X82537Y50299D01*
G01X82557Y50279D01*
G01X82578Y50238D01*
G01X82578Y50197D01*
G01X82557Y50156D01*
G01X82516Y50094D01*
G01X82312Y49890D01*
G01X82598Y49890D01*
G01X82938Y50319D02*
G01X82733Y50033D01*
G01X83040Y50033D01*
G01X82938Y50319D02*
G01X82938Y49890D01*
G01X720Y42892D02*
G01X720Y42463D01*
G01X720Y42892D02*
G01X882Y42463D01*
G01X1045Y42892D02*
G01X882Y42463D01*
G01X1045Y42892D02*
G01X1045Y42463D01*
G01X1181Y42892D02*
G01X1468Y42463D01*
G01X1468Y42892D02*
G01X1181Y42463D01*
G01X1622Y42790D02*
G01X1622Y42811D01*
G01X1645Y42852D01*
G01X1664Y42872D01*
G01X1706Y42892D01*
G01X1787Y42892D01*
G01X1828Y42872D01*
G01X1847Y42852D01*
G01X1870Y42811D01*
G01X1870Y42770D01*
G01X1847Y42729D01*
G01X1807Y42667D01*
G01X1603Y42463D01*
G01X1889Y42463D01*
G01X2270Y42892D02*
G01X2065Y42892D01*
G01X2045Y42708D01*
G01X2065Y42729D01*
G01X2126Y42749D01*
G01X2189Y42749D01*
G01X2250Y42729D01*
G01X2290Y42688D01*
G01X2309Y42627D01*
G01X2309Y42586D01*
G01X2290Y42524D01*
G01X2250Y42483D01*
G01X2189Y42463D01*
G01X2126Y42463D01*
G01X2065Y42483D01*
G01X2045Y42504D01*
G01X2025Y42545D01*
G01X8222Y42819D02*
G01X8222Y42390D01*
G01X8222Y42819D02*
G01X8387Y42390D01*
G01X8550Y42819D02*
G01X8387Y42390D01*
G01X8550Y42819D02*
G01X8550Y42390D01*
G01X8685Y42819D02*
G01X8972Y42390D01*
G01X8972Y42819D02*
G01X8685Y42390D01*
G01X9127Y42717D02*
G01X9127Y42738D01*
G01X9147Y42779D01*
G01X9168Y42799D01*
G01X9209Y42819D01*
G01X9291Y42819D01*
G01X9332Y42799D01*
G01X9352Y42779D01*
G01X9372Y42738D01*
G01X9372Y42697D01*
G01X9352Y42656D01*
G01X9311Y42594D01*
G01X9107Y42390D01*
G01X9393Y42390D01*
G01X9772Y42758D02*
G01X9753Y42799D01*
G01X9691Y42819D01*
G01X9651Y42819D01*
G01X9588Y42799D01*
G01X9547Y42738D01*
G01X9528Y42635D01*
G01X9528Y42533D01*
G01X9547Y42451D01*
G01X9588Y42410D01*
G01X9651Y42390D01*
G01X9671Y42390D01*
G01X9733Y42410D01*
G01X9772Y42451D01*
G01X9794Y42513D01*
G01X9794Y42533D01*
G01X9772Y42594D01*
G01X9733Y42635D01*
G01X9671Y42656D01*
G01X9651Y42656D01*
G01X9588Y42635D01*
G01X9547Y42594D01*
G01X9528Y42533D01*
G01X15722Y42818D02*
G01X15722Y42389D01*
G01X15722Y42818D02*
G01X15887Y42389D01*
G01X16049Y42818D02*
G01X15887Y42389D01*
G01X16049Y42818D02*
G01X16049Y42389D01*
G01X16185Y42818D02*
G01X16472Y42389D01*
G01X16472Y42818D02*
G01X16185Y42389D01*
G01X16627Y42716D02*
G01X16627Y42737D01*
G01X16648Y42778D01*
G01X16668Y42798D01*
G01X16709Y42818D01*
G01X16791Y42818D01*
G01X16832Y42798D01*
G01X16852Y42778D01*
G01X16873Y42737D01*
G01X16873Y42696D01*
G01X16852Y42655D01*
G01X16811Y42593D01*
G01X16607Y42389D01*
G01X16893Y42389D01*
G01X17314Y42818D02*
G01X17110Y42389D01*
G01X17028Y42818D02*
G01X17314Y42818D01*
G01X23224Y42856D02*
G01X23224Y42427D01*
G01X23224Y42856D02*
G01X23388Y42427D01*
G01X23551Y42856D02*
G01X23388Y42427D01*
G01X23551Y42856D02*
G01X23551Y42427D01*
G01X23686Y42856D02*
G01X23973Y42427D01*
G01X23973Y42856D02*
G01X23686Y42427D01*
G01X24127Y42754D02*
G01X24127Y42775D01*
G01X24149Y42816D01*
G01X24169Y42836D01*
G01X24210Y42856D01*
G01X24292Y42856D01*
G01X24333Y42836D01*
G01X24352Y42816D01*
G01X24374Y42775D01*
G01X24374Y42734D01*
G01X24352Y42693D01*
G01X24312Y42631D01*
G01X24108Y42427D01*
G01X24394Y42427D01*
G01X24631Y42856D02*
G01X24570Y42836D01*
G01X24549Y42795D01*
G01X24549Y42754D01*
G01X24570Y42713D01*
G01X24611Y42693D01*
G01X24693Y42672D01*
G01X24754Y42652D01*
G01X24795Y42611D01*
G01X24814Y42570D01*
G01X24814Y42509D01*
G01X24795Y42468D01*
G01X24774Y42447D01*
G01X24713Y42427D01*
G01X24631Y42427D01*
G01X24570Y42447D01*
G01X24549Y42468D01*
G01X24529Y42509D01*
G01X24529Y42570D01*
G01X24549Y42611D01*
G01X24589Y42652D01*
G01X24652Y42672D01*
G01X24733Y42693D01*
G01X24774Y42713D01*
G01X24795Y42754D01*
G01X24795Y42795D01*
G01X24774Y42836D01*
G01X24713Y42856D01*
G01X24631Y42856D01*
G01X30725Y42891D02*
G01X30725Y42462D01*
G01X30725Y42891D02*
G01X30889Y42462D01*
G01X31052Y42891D02*
G01X30889Y42462D01*
G01X31052Y42891D02*
G01X31052Y42462D01*
G01X31187Y42891D02*
G01X31474Y42462D01*
G01X31474Y42891D02*
G01X31187Y42462D01*
G01X31629Y42789D02*
G01X31629Y42810D01*
G01X31650Y42851D01*
G01X31670Y42871D01*
G01X31711Y42891D01*
G01X31793Y42891D01*
G01X31833Y42871D01*
G01X31854Y42851D01*
G01X31875Y42810D01*
G01X31875Y42769D01*
G01X31854Y42728D01*
G01X31813Y42666D01*
G01X31608Y42462D01*
G01X31895Y42462D01*
G01X32295Y42748D02*
G01X32275Y42687D01*
G01X32235Y42646D01*
G01X32173Y42626D01*
G01X32152Y42626D01*
G01X32091Y42646D01*
G01X32050Y42687D01*
G01X32030Y42748D01*
G01X32030Y42769D01*
G01X32050Y42830D01*
G01X32091Y42871D01*
G01X32152Y42891D01*
G01X32173Y42891D01*
G01X32235Y42871D01*
G01X32275Y42830D01*
G01X32295Y42748D01*
G01X32295Y42646D01*
G01X32275Y42544D01*
G01X32235Y42482D01*
G01X32173Y42462D01*
G01X32132Y42462D01*
G01X32070Y42482D01*
G01X32050Y42523D01*
G01X38262Y42892D02*
G01X38262Y42463D01*
G01X38262Y42892D02*
G01X38426Y42463D01*
G01X38589Y42892D02*
G01X38426Y42463D01*
G01X38589Y42892D02*
G01X38589Y42463D01*
G01X38724Y42892D02*
G01X39011Y42463D01*
G01X39011Y42892D02*
G01X38724Y42463D01*
G01X39187Y42892D02*
G01X39412Y42892D01*
G01X39289Y42729D01*
G01X39350Y42729D01*
G01X39391Y42708D01*
G01X39412Y42688D01*
G01X39432Y42627D01*
G01X39432Y42586D01*
G01X39412Y42524D01*
G01X39371Y42483D01*
G01X39309Y42463D01*
G01X39248Y42463D01*
G01X39187Y42483D01*
G01X39166Y42504D01*
G01X39146Y42545D01*
G01X39690Y42892D02*
G01X39628Y42872D01*
G01X39587Y42811D01*
G01X39567Y42708D01*
G01X39567Y42647D01*
G01X39587Y42545D01*
G01X39628Y42483D01*
G01X39690Y42463D01*
G01X39731Y42463D01*
G01X39792Y42483D01*
G01X39833Y42545D01*
G01X39853Y42647D01*
G01X39853Y42708D01*
G01X39833Y42811D01*
G01X39792Y42872D01*
G01X39731Y42892D01*
G01X39690Y42892D01*
G01X45799Y42854D02*
G01X45799Y42425D01*
G01X45799Y42854D02*
G01X45963Y42425D01*
G01X46126Y42854D02*
G01X45963Y42425D01*
G01X46126Y42854D02*
G01X46126Y42425D01*
G01X46261Y42854D02*
G01X46548Y42425D01*
G01X46548Y42854D02*
G01X46261Y42425D01*
G01X46724Y42854D02*
G01X46949Y42854D01*
G01X46826Y42691D01*
G01X46887Y42691D01*
G01X46928Y42670D01*
G01X46949Y42650D01*
G01X46969Y42589D01*
G01X46969Y42548D01*
G01X46949Y42486D01*
G01X46908Y42445D01*
G01X46846Y42425D01*
G01X46785Y42425D01*
G01X46724Y42445D01*
G01X46703Y42466D01*
G01X46683Y42507D01*
G01X47104Y42773D02*
G01X47145Y42793D01*
G01X47205Y42854D01*
G01X47205Y42425D01*
G01X53261Y42865D02*
G01X53261Y42436D01*
G01X53261Y42865D02*
G01X53426Y42436D01*
G01X53589Y42865D02*
G01X53426Y42436D01*
G01X53589Y42865D02*
G01X53589Y42436D01*
G01X53724Y42865D02*
G01X54011Y42436D01*
G01X54011Y42865D02*
G01X53724Y42436D01*
G01X54187Y42865D02*
G01X54412Y42865D01*
G01X54289Y42702D01*
G01X54350Y42702D01*
G01X54396Y42681D01*
G01X54412Y42661D01*
G01X54435Y42600D01*
G01X54435Y42559D01*
G01X54412Y42497D01*
G01X54373Y42456D01*
G01X54311Y42436D01*
G01X54249Y42436D01*
G01X54187Y42456D01*
G01X54171Y42477D01*
G01X54148Y42518D01*
G01X54587Y42763D02*
G01X54587Y42784D01*
G01X54610Y42825D01*
G01X54633Y42845D01*
G01X54672Y42865D01*
G01X54751Y42865D01*
G01X54797Y42845D01*
G01X54812Y42825D01*
G01X54835Y42784D01*
G01X54835Y42743D01*
G01X54812Y42702D01*
G01X54773Y42640D01*
G01X54572Y42436D01*
G01X54858Y42436D01*
G01X60803Y42864D02*
G01X60803Y42435D01*
G01X60803Y42864D02*
G01X60965Y42435D01*
G01X61128Y42864D02*
G01X60965Y42435D01*
G01X61128Y42864D02*
G01X61128Y42435D01*
G01X61265Y42864D02*
G01X61552Y42435D01*
G01X61552Y42864D02*
G01X61265Y42435D01*
G01X61728Y42864D02*
G01X61953Y42864D01*
G01X61828Y42701D01*
G01X61890Y42701D01*
G01X61928Y42680D01*
G01X61953Y42660D01*
G01X61972Y42599D01*
G01X61972Y42558D01*
G01X61953Y42496D01*
G01X61912Y42455D01*
G01X61850Y42435D01*
G01X61789Y42435D01*
G01X61728Y42455D01*
G01X61703Y42476D01*
G01X61687Y42517D01*
G01X62149Y42864D02*
G01X62374Y42864D01*
G01X62251Y42701D01*
G01X62313Y42701D01*
G01X62353Y42680D01*
G01X62374Y42660D01*
G01X62390Y42599D01*
G01X62390Y42558D01*
G01X62374Y42496D01*
G01X62329Y42455D01*
G01X62267Y42435D01*
G01X62209Y42435D01*
G01X62149Y42455D01*
G01X62128Y42476D01*
G01X62104Y42517D01*
G01X68266Y42855D02*
G01X68266Y42426D01*
G01X68266Y42855D02*
G01X68430Y42426D01*
G01X68593Y42855D02*
G01X68430Y42426D01*
G01X68593Y42855D02*
G01X68593Y42426D01*
G01X68728Y42855D02*
G01X69015Y42426D01*
G01X69015Y42855D02*
G01X68728Y42426D01*
G01X69191Y42855D02*
G01X69416Y42855D01*
G01X69293Y42692D01*
G01X69354Y42692D01*
G01X69394Y42671D01*
G01X69416Y42651D01*
G01X69436Y42590D01*
G01X69436Y42549D01*
G01X69416Y42487D01*
G01X69375Y42446D01*
G01X69313Y42426D01*
G01X69252Y42426D01*
G01X69191Y42446D01*
G01X69169Y42467D01*
G01X69150Y42508D01*
G01X69776Y42855D02*
G01X69570Y42569D01*
G01X69878Y42569D01*
G01X69776Y42855D02*
G01X69776Y42426D01*
G01X75803Y42929D02*
G01X75803Y42500D01*
G01X75803Y42929D02*
G01X75967Y42500D01*
G01X76130Y42929D02*
G01X75967Y42500D01*
G01X76130Y42929D02*
G01X76130Y42500D01*
G01X76265Y42929D02*
G01X76552Y42500D01*
G01X76552Y42929D02*
G01X76265Y42500D01*
G01X76728Y42929D02*
G01X76953Y42929D01*
G01X76830Y42766D01*
G01X76891Y42766D01*
G01X76932Y42745D01*
G01X76953Y42725D01*
G01X76973Y42664D01*
G01X76973Y42623D01*
G01X76953Y42561D01*
G01X76912Y42520D01*
G01X76850Y42500D01*
G01X76789Y42500D01*
G01X76728Y42520D01*
G01X76707Y42541D01*
G01X76687Y42582D01*
G01X77353Y42929D02*
G01X77149Y42929D01*
G01X77128Y42745D01*
G01X77149Y42766D01*
G01X77210Y42786D01*
G01X77272Y42786D01*
G01X77333Y42766D01*
G01X77374Y42725D01*
G01X77394Y42664D01*
G01X77394Y42623D01*
G01X77374Y42561D01*
G01X77333Y42520D01*
G01X77272Y42500D01*
G01X77210Y42500D01*
G01X77149Y42520D01*
G01X77128Y42541D01*
G01X77108Y42582D01*
G01X83378Y42782D02*
G01X83378Y42353D01*
G01X83378Y42782D02*
G01X83542Y42353D01*
G01X83705Y42782D02*
G01X83542Y42353D01*
G01X83705Y42782D02*
G01X83705Y42353D01*
G01X83840Y42782D02*
G01X84127Y42353D01*
G01X84127Y42782D02*
G01X83840Y42353D01*
G01X84303Y42782D02*
G01X84528Y42782D01*
G01X84405Y42619D01*
G01X84466Y42619D01*
G01X84506Y42598D01*
G01X84528Y42578D01*
G01X84547Y42517D01*
G01X84547Y42476D01*
G01X84528Y42414D01*
G01X84487Y42373D01*
G01X84425Y42353D01*
G01X84364Y42353D01*
G01X84303Y42373D01*
G01X84281Y42394D01*
G01X84262Y42435D01*
G01X84928Y42721D02*
G01X84907Y42762D01*
G01X84846Y42782D01*
G01X84806Y42782D01*
G01X84744Y42762D01*
G01X84703Y42701D01*
G01X84682Y42598D01*
G01X84682Y42496D01*
G01X84703Y42414D01*
G01X84744Y42373D01*
G01X84806Y42353D01*
G01X84826Y42353D01*
G01X84888Y42373D01*
G01X84928Y42414D01*
G01X84949Y42476D01*
G01X84949Y42496D01*
G01X84928Y42557D01*
G01X84888Y42598D01*
G01X84826Y42619D01*
G01X84806Y42619D01*
G01X84744Y42598D01*
G01X84703Y42557D01*
G01X84682Y42496D01*
G01X1659Y35391D02*
G01X1659Y34962D01*
G01X1659Y35391D02*
G01X1823Y34962D01*
G01X1986Y35391D02*
G01X1823Y34962D01*
G01X1986Y35391D02*
G01X1986Y34962D01*
G01X2120Y35391D02*
G01X2408Y34962D01*
G01X2408Y35391D02*
G01X2120Y34962D01*
G01X2584Y35391D02*
G01X2809Y35391D01*
G01X2686Y35229D01*
G01X2747Y35229D01*
G01X2787Y35208D01*
G01X2809Y35187D01*
G01X2829Y35127D01*
G01X2829Y35085D01*
G01X2809Y35023D01*
G01X2768Y34983D01*
G01X2706Y34962D01*
G01X2645Y34962D01*
G01X2584Y34983D01*
G01X2562Y35004D01*
G01X2543Y35045D01*
G01X3250Y35391D02*
G01X3045Y34962D01*
G01X2964Y35391D02*
G01X3250Y35391D01*
G01X11036Y35392D02*
G01X11036Y34964D01*
G01X11036Y35392D02*
G01X11200Y34964D01*
G01X11363Y35392D02*
G01X11200Y34964D01*
G01X11363Y35392D02*
G01X11363Y34964D01*
G01X11497Y35392D02*
G01X11785Y34964D01*
G01X11785Y35392D02*
G01X11497Y34964D01*
G01X11961Y35392D02*
G01X12186Y35392D01*
G01X12063Y35229D01*
G01X12124Y35229D01*
G01X12165Y35209D01*
G01X12186Y35189D01*
G01X12206Y35128D01*
G01X12206Y35087D01*
G01X12186Y35025D01*
G01X12144Y34984D01*
G01X12083Y34964D01*
G01X12022Y34964D01*
G01X11961Y34984D01*
G01X11940Y35004D01*
G01X11919Y35046D01*
G01X12443Y35392D02*
G01X12382Y35373D01*
G01X12361Y35332D01*
G01X12361Y35291D01*
G01X12382Y35250D01*
G01X12422Y35229D01*
G01X12505Y35209D01*
G01X12566Y35189D01*
G01X12607Y35148D01*
G01X12627Y35107D01*
G01X12627Y35046D01*
G01X12607Y35004D01*
G01X12586Y34984D01*
G01X12525Y34964D01*
G01X12443Y34964D01*
G01X12382Y34984D01*
G01X12361Y35004D01*
G01X12341Y35046D01*
G01X12341Y35107D01*
G01X12361Y35148D01*
G01X12402Y35189D01*
G01X12463Y35209D01*
G01X12546Y35229D01*
G01X12586Y35250D01*
G01X12607Y35291D01*
G01X12607Y35332D01*
G01X12586Y35373D01*
G01X12525Y35392D01*
G01X12443Y35392D01*
G01X20449Y35391D02*
G01X20449Y34963D01*
G01X20449Y35391D02*
G01X20613Y34963D01*
G01X20776Y35391D02*
G01X20613Y34963D01*
G01X20776Y35391D02*
G01X20776Y34963D01*
G01X20911Y35391D02*
G01X21198Y34963D01*
G01X21198Y35391D02*
G01X20911Y34963D01*
G01X21374Y35391D02*
G01X21599Y35391D01*
G01X21476Y35229D01*
G01X21537Y35229D01*
G01X21577Y35208D01*
G01X21599Y35188D01*
G01X21619Y35127D01*
G01X21619Y35086D01*
G01X21599Y35024D01*
G01X21558Y34983D01*
G01X21495Y34963D01*
G01X21435Y34963D01*
G01X21374Y34983D01*
G01X21352Y35004D01*
G01X21333Y35045D01*
G01X22020Y35249D02*
G01X21999Y35188D01*
G01X21958Y35147D01*
G01X21897Y35127D01*
G01X21877Y35127D01*
G01X21814Y35147D01*
G01X21774Y35188D01*
G01X21754Y35249D01*
G01X21754Y35270D01*
G01X21774Y35330D01*
G01X21814Y35372D01*
G01X21877Y35391D01*
G01X21897Y35391D01*
G01X21958Y35372D01*
G01X21999Y35330D01*
G01X22020Y35249D01*
G01X22020Y35147D01*
G01X21999Y35045D01*
G01X21958Y34983D01*
G01X21897Y34963D01*
G01X21856Y34963D01*
G01X21795Y34983D01*
G01X21774Y35024D01*
G01X29788Y35354D02*
G01X29788Y34926D01*
G01X29788Y35354D02*
G01X29952Y34926D01*
G01X30114Y35354D02*
G01X29952Y34926D01*
G01X30114Y35354D02*
G01X30114Y34926D01*
G01X30250Y35354D02*
G01X30537Y34926D01*
G01X30537Y35354D02*
G01X30250Y34926D01*
G01X30876Y35354D02*
G01X30672Y35069D01*
G01X30977Y35069D01*
G01X30876Y35354D02*
G01X30876Y34926D01*
G01X31236Y35354D02*
G01X31175Y35335D01*
G01X31133Y35274D01*
G01X31113Y35171D01*
G01X31113Y35110D01*
G01X31133Y35008D01*
G01X31175Y34946D01*
G01X31236Y34926D01*
G01X31277Y34926D01*
G01X31338Y34946D01*
G01X31379Y35008D01*
G01X31400Y35110D01*
G01X31400Y35171D01*
G01X31379Y35274D01*
G01X31338Y35335D01*
G01X31277Y35354D01*
G01X31236Y35354D01*
G01X59828Y35319D02*
G01X59828Y34890D01*
G01X59828Y35319D02*
G01X59991Y34890D01*
G01X60154Y35319D02*
G01X59991Y34890D01*
G01X60154Y35319D02*
G01X60154Y34890D01*
G01X60290Y35319D02*
G01X60577Y34890D01*
G01X60577Y35319D02*
G01X60290Y34890D01*
G01X60916Y35319D02*
G01X60712Y35033D01*
G01X61017Y35033D01*
G01X60916Y35319D02*
G01X60916Y34890D01*
G01X61399Y35319D02*
G01X61194Y35319D01*
G01X61174Y35135D01*
G01X61194Y35155D01*
G01X61255Y35176D01*
G01X61316Y35176D01*
G01X61378Y35155D01*
G01X61419Y35115D01*
G01X61440Y35054D01*
G01X61440Y35013D01*
G01X61419Y34951D01*
G01X61378Y34910D01*
G01X61316Y34890D01*
G01X61255Y34890D01*
G01X61194Y34910D01*
G01X61174Y34930D01*
G01X61153Y34972D01*
G01X68266Y35354D02*
G01X68266Y34926D01*
G01X68266Y35354D02*
G01X68430Y34926D01*
G01X68593Y35354D02*
G01X68430Y34926D01*
G01X68593Y35354D02*
G01X68593Y34926D01*
G01X68728Y35354D02*
G01X69015Y34926D01*
G01X69015Y35354D02*
G01X68728Y34926D01*
G01X69354Y35354D02*
G01X69150Y35069D01*
G01X69456Y35069D01*
G01X69354Y35354D02*
G01X69354Y34926D01*
G01X69837Y35294D02*
G01X69816Y35335D01*
G01X69755Y35354D01*
G01X69714Y35354D01*
G01X69653Y35335D01*
G01X69612Y35274D01*
G01X69591Y35171D01*
G01X69591Y35069D01*
G01X69612Y34987D01*
G01X69653Y34946D01*
G01X69714Y34926D01*
G01X69735Y34926D01*
G01X69796Y34946D01*
G01X69837Y34987D01*
G01X69857Y35049D01*
G01X69857Y35069D01*
G01X69837Y35129D01*
G01X69796Y35171D01*
G01X69735Y35191D01*
G01X69714Y35191D01*
G01X69653Y35171D01*
G01X69612Y35129D01*
G01X69591Y35069D01*
G01X75767Y35317D02*
G01X75767Y34889D01*
G01X75767Y35317D02*
G01X75931Y34889D01*
G01X76094Y35317D02*
G01X75931Y34889D01*
G01X76094Y35317D02*
G01X76094Y34889D01*
G01X76229Y35317D02*
G01X76516Y34889D01*
G01X76516Y35317D02*
G01X76229Y34889D01*
G01X76855Y35317D02*
G01X76651Y35032D01*
G01X76957Y35032D01*
G01X76855Y35317D02*
G01X76855Y34889D01*
G01X77379Y35317D02*
G01X77174Y34889D01*
G01X77092Y35317D02*
G01X77379Y35317D01*
G01X47360Y32669D02*
G01X47380Y32627D01*
G01X47422Y32587D01*
G01X47462Y32566D01*
G01X47544Y32566D01*
G01X47585Y32587D01*
G01X47626Y32627D01*
G01X47647Y32669D01*
G01X47666Y32729D01*
G01X47666Y32832D01*
G01X47647Y32894D01*
G01X47626Y32935D01*
G01X47585Y32976D01*
G01X47544Y32996D01*
G01X47462Y32996D01*
G01X47422Y32976D01*
G01X47380Y32935D01*
G01X47360Y32894D01*
G01X47204Y32669D02*
G01X47204Y32648D01*
G01X47184Y32607D01*
G01X47164Y32587D01*
G01X47123Y32566D01*
G01X47041Y32566D01*
G01X47000Y32587D01*
G01X46979Y32607D01*
G01X46959Y32648D01*
G01X46959Y32689D01*
G01X46979Y32729D01*
G01X47021Y32791D01*
G01X47225Y32996D01*
G01X46939Y32996D01*
G54D10*
G75*
G01X48116Y32798D02*
G03X48116Y32798I-750J0D01*
G01*
G75*
G01X86559Y32798D02*
G03X86559Y32798I-750J0D01*
G01*
G75*
G01X4075Y55300D02*
G03X4075Y55300I-750J0D01*
G01*
G75*
G01X11575Y55300D02*
G03X11575Y55300I-750J0D01*
G01*
G75*
G01X19075Y55300D02*
G03X19075Y55300I-750J0D01*
G01*
G75*
G01X26575Y55300D02*
G03X26575Y55300I-750J0D01*
G01*
G75*
G01X34075Y55300D02*
G03X34075Y55300I-750J0D01*
G01*
G75*
G01X41575Y55300D02*
G03X41575Y55300I-750J0D01*
G01*
G75*
G01X49075Y55300D02*
G03X49075Y55300I-750J0D01*
G01*
G75*
G01X56575Y55300D02*
G03X56575Y55300I-750J0D01*
G01*
G75*
G01X64075Y55300D02*
G03X64075Y55300I-750J0D01*
G01*
G75*
G01X71575Y55300D02*
G03X71575Y55300I-750J0D01*
G01*
G75*
G01X79075Y55300D02*
G03X79075Y55300I-750J0D01*
G01*
G75*
G01X86559Y55300D02*
G03X86559Y55300I-750J0D01*
G01*
G75*
G01X5925Y47799D02*
G03X5925Y47799I-750J0D01*
G01*
G75*
G01X15301Y47799D02*
G03X15301Y47799I-750J0D01*
G01*
G75*
G01X22802Y47799D02*
G03X22802Y47799I-750J0D01*
G01*
G75*
G01X30302Y47799D02*
G03X30302Y47799I-750J0D01*
G01*
G75*
G01X37804Y47799D02*
G03X37804Y47799I-750J0D01*
G01*
G75*
G01X45304Y47799D02*
G03X45304Y47799I-750J0D01*
G01*
G75*
G01X52804Y47799D02*
G03X52804Y47799I-750J0D01*
G01*
G75*
G01X60305Y47799D02*
G03X60305Y47799I-750J0D01*
G01*
G75*
G01X67807Y47799D02*
G03X67807Y47799I-750J0D01*
G01*
G75*
G01X75308Y47799D02*
G03X75308Y47799I-750J0D01*
G01*
G75*
G01X84684Y47799D02*
G03X84684Y47799I-750J0D01*
G01*
G75*
G01X4050Y40298D02*
G03X4050Y40298I-750J0D01*
G01*
G75*
G01X11551Y40298D02*
G03X11551Y40298I-750J0D01*
G01*
G75*
G01X19052Y40298D02*
G03X19052Y40298I-750J0D01*
G01*
G75*
G01X26552Y40298D02*
G03X26552Y40298I-750J0D01*
G01*
G75*
G01X34053Y40298D02*
G03X34053Y40298I-750J0D01*
G01*
G75*
G01X41554Y40298D02*
G03X41554Y40298I-750J0D01*
G01*
G75*
G01X49054Y40298D02*
G03X49054Y40298I-750J0D01*
G01*
G75*
G01X56555Y40298D02*
G03X56555Y40298I-750J0D01*
G01*
G75*
G01X64055Y40298D02*
G03X64055Y40298I-750J0D01*
G01*
G75*
G01X71557Y40298D02*
G03X71557Y40298I-750J0D01*
G01*
G75*
G01X79058Y40298D02*
G03X79058Y40298I-750J0D01*
G01*
G75*
G01X86559Y40298D02*
G03X86559Y40298I-750J0D01*
G01*
G75*
G01X4988Y32798D02*
G03X4988Y32798I-750J0D01*
G01*
G75*
G01X14363Y32797D02*
G03X14363Y32797I-750J0D01*
G01*
G75*
G01X23739Y32798D02*
G03X23739Y32798I-750J0D01*
G01*
G75*
G01X33116Y32798D02*
G03X33116Y32798I-750J0D01*
G01*
G75*
G01X63119Y32798D02*
G03X63119Y32798I-750J0D01*
G01*
G75*
G01X71557Y32798D02*
G03X71557Y32798I-750J0D01*
G01*
G75*
G01X79058Y32798D02*
G03X79058Y32798I-750J0D01*
G01*

M00*
M02*