;Drill file created by EasyEDA
M48
;Holesize 1 = 0.032 INCH
T01C0.032
;Holesize 2 = 0.075 INCH
T02C0.075
;Holesize 3 = 0.040 INCH
T03C0.040
;Holesize 4 = 0.036 INCH
T04C0.036
;Holesize 5 = 0.060 INCH
T05C0.060
;Holesize 6 = 0.028 INCH
T06C0.028
;Holesize 7 = 0.035 INCH
T07C0.035
;Holesize 8 = 0.018 INCH
T08C0.018
;Holesize 9 = 0.012 INCH
T09C0.012
;Holesize 10 = 0.070 INCH
T10C0.070
;Holesize 11 = 0.160 INCH
T11C0.160
;Holesize 12 = 0.120 INCH
T12C0.120
;Holesize 13 = 0.157 INCH
T13C0.157
;Holesize 14 = 0.200 INCH
T14C0.200
INCH,00.0000
%
G05
G90
T01
X013935Y056422
X014565Y056422
X015194Y056422
X014255Y056892
X014875Y056892
X009901Y046561
X009901Y047351
X009901Y048141
X009901Y048921
T02
X016005Y058431
X013125Y058431
T03
X028326Y050880
X029326Y050880
X030326Y050880
X031326Y050880
X032326Y050880
X033326Y050880
X034326Y050880
X035326Y050880
X036326Y050880
X037326Y050880
X038326Y050880
X039326Y050880
X039326Y044880
X038326Y044880
X037326Y044880
X036326Y044880
X035326Y044880
X034326Y044880
X033326Y044880
X032326Y044880
X031326Y044880
X030326Y044880
X029326Y044880
X028326Y044880
X069550Y043361
X070550Y043361
X071550Y043361
X072550Y043361
X073550Y043361
X074550Y043361
X075550Y043361
X076550Y043361
X077550Y043361
X078550Y043361
X079550Y043361
X080550Y043361
X080550Y037361
X079550Y037361
X078550Y037361
X077550Y037361
X076550Y037361
X075550Y037361
X074550Y037361
X073550Y037361
X072550Y037361
X071550Y037361
X070550Y037361
X069550Y037361
T04
X046866Y030798
X047866Y030798
X085309Y030798
X086309Y030798
X002825Y053300
X003825Y053300
X010325Y053300
X011325Y053300
X017825Y053300
X018825Y053300
X025325Y053300
X026325Y053300
X032825Y053300
X033825Y053300
X040325Y053300
X041325Y053300
X047825Y053300
X048825Y053300
X055325Y053300
X056325Y053300
X062825Y053300
X063825Y053300
X070325Y053300
X071325Y053300
X077825Y053300
X078825Y053300
X085309Y053300
X086309Y053300
X004675Y045799
X005675Y045799
X014051Y045799
X015051Y045799
X021552Y045799
X022552Y045799
X029052Y045799
X030052Y045799
X036554Y045799
X037554Y045799
X044054Y045799
X045054Y045799
X051554Y045799
X052554Y045799
X059055Y045799
X060055Y045799
X066557Y045799
X067557Y045799
X074058Y045799
X075058Y045799
X083434Y045799
X084434Y045799
X002800Y038298
X003800Y038298
X010301Y038298
X011301Y038298
X017802Y038298
X018802Y038298
X025302Y038298
X026302Y038298
X032803Y038298
X033803Y038298
X040304Y038298
X041304Y038298
X047804Y038298
X048804Y038298
X055305Y038298
X056305Y038298
X062805Y038298
X063805Y038298
X070307Y038298
X071307Y038298
X077808Y038298
X078808Y038298
X085309Y038298
X086309Y038298
X003737Y030798
X004738Y030798
X013113Y030797
X014113Y030797
X022489Y030798
X023489Y030798
X031866Y030798
X032866Y030798
X061869Y030798
X062869Y030798
X070307Y030798
X071307Y030798
X077808Y030798
X078808Y030798
T05
X045866Y033798
X048366Y034798
X084309Y033798
X086809Y034798
X001825Y056300
X004325Y057300
X009325Y056300
X011825Y057300
X016825Y056300
X019325Y057300
X024325Y056300
X026825Y057300
X031825Y056300
X034325Y057300
X039325Y056300
X041825Y057300
X046825Y056300
X049325Y057300
X054325Y056300
X056825Y057300
X061825Y056300
X064325Y057300
X069325Y056300
X071825Y057300
X076825Y056300
X079325Y057300
X084309Y056300
X086809Y057300
X003675Y048799
X006175Y049799
X013051Y048799
X015551Y049799
X020552Y048799
X023052Y049799
X028052Y048799
X030552Y049799
X035554Y048799
X038054Y049799
X043054Y048799
X045554Y049799
X050554Y048799
X053054Y049799
X058055Y048799
X060555Y049799
X065557Y048799
X068057Y049799
X073058Y048799
X075558Y049799
X082434Y048799
X084934Y049799
X001800Y041298
X004300Y042298
X009301Y041298
X011801Y042298
X016802Y041298
X019302Y042298
X024302Y041298
X026802Y042298
X031802Y041298
X034303Y042298
X039304Y041298
X041804Y042298
X046804Y041298
X049304Y042298
X054305Y041298
X056805Y042298
X061805Y041298
X064305Y042298
X069307Y041298
X071807Y042298
X076808Y041298
X079308Y042298
X084309Y041298
X086809Y042298
X002737Y033798
X005238Y034798
X012113Y033797
X014613Y034797
X021489Y033798
X023989Y034798
X030866Y033798
X033366Y034798
X060869Y033798
X063369Y034798
X069307Y033798
X071807Y034798
X076808Y033798
X079308Y034798
T06
X082109Y034622
X082109Y031622
X001945Y051502
X004946Y051502
X007100Y057125
X007100Y054125
X022102Y057123
X022102Y054123
X029607Y057117
X029607Y054117
X037101Y057123
X037101Y054123
X044601Y057124
X044601Y054124
X052104Y057121
X052104Y054121
X059605Y057121
X059605Y054121
X067103Y057123
X067103Y054123
X074611Y057125
X074611Y054125
X082109Y057125
X082109Y054125
X083985Y051499
X086985Y051499
X001478Y049624
X001478Y046624
X013194Y044000
X016194Y044000
X018352Y049624
X018352Y046624
X033355Y049624
X033355Y046624
X040855Y049624
X040855Y046624
X048355Y049624
X048355Y046624
X055858Y049624
X055858Y046624
X063358Y049624
X063358Y046624
X070860Y049624
X070860Y046624
X072733Y051501
X075733Y051501
X087733Y049624
X087733Y046624
X007100Y042123
X007100Y039123
X014602Y042123
X014602Y039123
X022102Y042123
X022102Y039123
X029602Y042123
X029602Y039123
X037104Y042123
X037104Y039123
X044604Y042123
X044604Y039123
X052105Y042123
X052105Y039123
X059605Y042123
X059605Y039123
X067107Y042123
X067107Y039123
X074608Y042123
X074608Y039123
X076951Y036498
X079951Y036498
X084453Y036498
X087453Y036498
X008038Y034621
X008038Y031621
X009913Y034622
X009913Y031622
X019289Y034622
X019289Y031622
X028666Y034622
X028666Y031622
X036166Y034619
X036166Y031619
X058669Y034622
X058669Y031622
X067107Y034622
X067107Y031622
X074608Y034622
X074608Y031622
T07
X077895Y048123
X077895Y051123
X079768Y048122
X079768Y051122
X078832Y044840
X078832Y047840
X080704Y044838
X080704Y047838
T08
X045473Y041245
X064905Y051249
X037810Y042668
X028852Y046950
X064665Y051589
X033268Y043140
X021838Y045151
X080348Y038692
X032984Y045652
X036448Y049789
X014856Y053811
X035561Y042931
X068558Y046209
T09
X011319Y044467
X038510Y035560
X027727Y041654
X020227Y043061
X003350Y041654
X062888Y041654
X078358Y041654
X078358Y034154
X073670Y040717
X083984Y043998
X085390Y039310
X080234Y041654
X076952Y032277
X075546Y036498
X043666Y035560
X045541Y036498
X043198Y047280
X029602Y036966
X032885Y036498
X034760Y041654
X031010Y043061
X033354Y047749
X002881Y036498
X027780Y053426
X020227Y044467
X055387Y036029
X025383Y047749
X017414Y048218
X052574Y043530
X042261Y045874
X046479Y045874
X053980Y045874
X061482Y045874
X043198Y043530
X015538Y048218
X012180Y049270
X035060Y047090
T10
X049366Y032798
X045366Y032798
X087809Y032798
X083809Y032798
X005325Y055300
X001325Y055300
X012825Y055300
X008825Y055300
X020325Y055300
X016325Y055300
X027825Y055300
X023825Y055300
X035325Y055300
X031325Y055300
X042825Y055300
X038825Y055300
X050325Y055300
X046325Y055300
X057825Y055300
X053825Y055300
X065325Y055300
X061325Y055300
X072825Y055300
X068825Y055300
X080325Y055300
X076325Y055300
X087809Y055300
X083809Y055300
X007175Y047799
X003175Y047799
X016551Y047799
X012551Y047799
X024052Y047799
X020052Y047799
X031552Y047799
X027552Y047799
X039054Y047799
X035054Y047799
X046554Y047799
X042554Y047799
X054054Y047799
X050054Y047799
X061555Y047799
X057555Y047799
X069057Y047799
X065057Y047799
X076558Y047799
X072558Y047799
X085934Y047799
X081934Y047799
X005300Y040298
X001300Y040298
X012801Y040298
X008801Y040298
X020302Y040298
X016302Y040298
X027802Y040298
X023802Y040298
X035303Y040298
X031302Y040298
X042804Y040298
X038804Y040298
X050304Y040298
X046304Y040298
X057805Y040298
X053805Y040298
X065305Y040298
X061305Y040298
X072807Y040298
X068807Y040298
X080308Y040298
X076308Y040298
X087809Y040298
X083809Y040298
X006238Y032798
X002237Y032798
X015613Y032797
X011613Y032797
X024989Y032798
X020989Y032798
X034366Y032798
X030366Y032798
X064369Y032798
X060369Y032798
X072807Y032798
X068807Y032798
X080308Y032798
X076308Y032798
T11
X047366Y032798
X085809Y032798
X003325Y055300
X010825Y055300
X018325Y055300
X025825Y055300
X033325Y055300
X040825Y055300
X048325Y055300
X055825Y055300
X063325Y055300
X070825Y055300
X078325Y055300
X085809Y055300
X005175Y047799
X014551Y047799
X022052Y047799
X029552Y047799
X037054Y047799
X044554Y047799
X052054Y047799
X059555Y047799
X067057Y047799
X074558Y047799
X083934Y047799
X003300Y040298
X010801Y040298
X018302Y040298
X025802Y040298
X033303Y040298
X040804Y040298
X048304Y040298
X055805Y040298
X063305Y040298
X070807Y040298
X078308Y040298
X085809Y040298
X004238Y032798
X013613Y032797
X022989Y032798
X032366Y032798
X062369Y032798
X070807Y032798
X078308Y032798
T12
X042594Y030009
X052144Y030003
T13
X042589Y036104
X052144Y036099
T14
X007100Y051499
X007100Y036498
X044604Y043998
X082109Y051499
X082109Y036498
M30
