G04 ---------------------------- Layer name :TOP SOLDER LAYER*
G04 easyEDA 0.1*
G04 Scale: 100 percent, Rotated: No, Reflected: No *
G04 Dimensions in inches *
G04 leading zeros omitted , absolute positions ,2 integer and 4 * 
%FSLAX24Y24*%
%MOIN*%
G90*
G70D02*

%ADD13C,0.050200*%
%ADD15C,0.093600*%
%ADD17C,0.077000*%
%ADD19R,0.088000X0.050200*%
%ADD20C,0.073000*%
%ADD22C,0.093000*%
%ADD24C,0.078000*%

%LPD*%
%LNVIA PAD TRACK COPPERAREA*%
G54D13*
G01X13935Y56422D03*
G01X14565Y56422D03*
G01X15194Y56422D03*
G01X14255Y56892D03*
G01X14875Y56892D03*
G54D15*
G01X16005Y58431D03*
G01X13125Y58431D03*
G54D17*
G01X28326Y50880D03*
G01X29326Y50880D03*
G01X30326Y50880D03*
G01X31326Y50880D03*
G01X32326Y50880D03*
G01X33326Y50880D03*
G01X34326Y50880D03*
G01X35326Y50880D03*
G01X36326Y50880D03*
G01X37326Y50880D03*
G01X38326Y50880D03*
G01X39326Y50880D03*
G01X39326Y44880D03*
G01X38326Y44880D03*
G01X37326Y44880D03*
G01X36326Y44880D03*
G01X35326Y44880D03*
G01X34326Y44880D03*
G01X33326Y44880D03*
G01X32326Y44880D03*
G01X31326Y44880D03*
G01X30326Y44880D03*
G01X29326Y44880D03*
G01X28326Y44880D03*
G01X69550Y43361D03*
G01X70550Y43361D03*
G01X71550Y43361D03*
G01X72550Y43361D03*
G01X73550Y43361D03*
G01X74550Y43361D03*
G01X75550Y43361D03*
G01X76550Y43361D03*
G01X77550Y43361D03*
G01X78550Y43361D03*
G01X79550Y43361D03*
G01X80550Y43361D03*
G01X80550Y37361D03*
G01X79550Y37361D03*
G01X78550Y37361D03*
G01X77550Y37361D03*
G01X76550Y37361D03*
G01X75550Y37361D03*
G01X74550Y37361D03*
G01X73550Y37361D03*
G01X72550Y37361D03*
G01X71550Y37361D03*
G01X70550Y37361D03*
G01X69550Y37361D03*
G54D19*
G01X9901Y46561D03*
G01X9901Y47351D03*
G01X9901Y48141D03*
G01X9901Y48921D03*
G54D20*
G01X46866Y30798D03*
G01X47866Y30798D03*
G54D22*
G01X45866Y33798D03*
G01X48366Y34798D03*
G54D20*
G01X85309Y30798D03*
G01X86309Y30798D03*
G54D22*
G01X84309Y33798D03*
G01X86809Y34798D03*
G54D24*
G01X82109Y34622D03*
G01X82109Y31622D03*
G54D17*
G01X77895Y48123D03*
G01X77895Y51123D03*
G01X79768Y48122D03*
G01X79768Y51122D03*
G01X78832Y44840D03*
G01X78832Y47840D03*
G01X80704Y44838D03*
G01X80704Y47838D03*
G54D24*
G01X1945Y51502D03*
G01X4946Y51502D03*
G01X7100Y57125D03*
G01X7100Y54125D03*
G01X22102Y57123D03*
G01X22102Y54123D03*
G01X29607Y57117D03*
G01X29607Y54117D03*
G01X37101Y57123D03*
G01X37101Y54123D03*
G01X44601Y57124D03*
G01X44601Y54124D03*
G01X52104Y57121D03*
G01X52104Y54121D03*
G01X59605Y57121D03*
G01X59605Y54121D03*
G01X67103Y57123D03*
G01X67103Y54123D03*
G01X74611Y57125D03*
G01X74611Y54125D03*
G01X82109Y57125D03*
G01X82109Y54125D03*
G01X83985Y51499D03*
G01X86985Y51499D03*
G01X1478Y49624D03*
G01X1478Y46624D03*
G01X13194Y44000D03*
G01X16194Y44000D03*
G01X18352Y49624D03*
G01X18352Y46624D03*
G01X33355Y49624D03*
G01X33355Y46624D03*
G01X40855Y49624D03*
G01X40855Y46624D03*
G01X48355Y49624D03*
G01X48355Y46624D03*
G01X55858Y49624D03*
G01X55858Y46624D03*
G01X63358Y49624D03*
G01X63358Y46624D03*
G01X70860Y49624D03*
G01X70860Y46624D03*
G01X72733Y51501D03*
G01X75733Y51501D03*
G01X87733Y49624D03*
G01X87733Y46624D03*
G01X7100Y42123D03*
G01X7100Y39123D03*
G01X14602Y42123D03*
G01X14602Y39123D03*
G01X22102Y42123D03*
G01X22102Y39123D03*
G01X29602Y42123D03*
G01X29602Y39123D03*
G01X37104Y42123D03*
G01X37104Y39123D03*
G01X44604Y42123D03*
G01X44604Y39123D03*
G01X52105Y42123D03*
G01X52105Y39123D03*
G01X59605Y42123D03*
G01X59605Y39123D03*
G01X67107Y42123D03*
G01X67107Y39123D03*
G01X74608Y42123D03*
G01X74608Y39123D03*
G01X76951Y36498D03*
G01X79951Y36498D03*
G01X84453Y36498D03*
G01X87453Y36498D03*
G01X8038Y34621D03*
G01X8038Y31621D03*
G01X9913Y34622D03*
G01X9913Y31622D03*
G01X19289Y34622D03*
G01X19289Y31622D03*
G01X28666Y34622D03*
G01X28666Y31622D03*
G01X36166Y34619D03*
G01X36166Y31619D03*
G01X58669Y34622D03*
G01X58669Y31622D03*
G01X67107Y34622D03*
G01X67107Y31622D03*
G01X74608Y34622D03*
G01X74608Y31622D03*
G54D20*
G01X2825Y53300D03*
G01X3825Y53300D03*
G54D22*
G01X1825Y56300D03*
G01X4325Y57300D03*
G54D20*
G01X10325Y53300D03*
G01X11325Y53300D03*
G54D22*
G01X9325Y56300D03*
G01X11825Y57300D03*
G54D20*
G01X17825Y53300D03*
G01X18825Y53300D03*
G54D22*
G01X16825Y56300D03*
G01X19325Y57300D03*
G54D20*
G01X25325Y53300D03*
G01X26325Y53300D03*
G54D22*
G01X24325Y56300D03*
G01X26825Y57300D03*
G54D20*
G01X32825Y53300D03*
G01X33825Y53300D03*
G54D22*
G01X31825Y56300D03*
G01X34325Y57300D03*
G54D20*
G01X40325Y53300D03*
G01X41325Y53300D03*
G54D22*
G01X39325Y56300D03*
G01X41825Y57300D03*
G54D20*
G01X47825Y53300D03*
G01X48825Y53300D03*
G54D22*
G01X46825Y56300D03*
G01X49325Y57300D03*
G54D20*
G01X55325Y53300D03*
G01X56325Y53300D03*
G54D22*
G01X54325Y56300D03*
G01X56825Y57300D03*
G54D20*
G01X62825Y53300D03*
G01X63825Y53300D03*
G54D22*
G01X61825Y56300D03*
G01X64325Y57300D03*
G54D20*
G01X70325Y53300D03*
G01X71325Y53300D03*
G54D22*
G01X69325Y56300D03*
G01X71825Y57300D03*
G54D20*
G01X77825Y53300D03*
G01X78825Y53300D03*
G54D22*
G01X76825Y56300D03*
G01X79325Y57300D03*
G54D20*
G01X85309Y53300D03*
G01X86309Y53300D03*
G54D22*
G01X84309Y56300D03*
G01X86809Y57300D03*
G54D20*
G01X4675Y45799D03*
G01X5675Y45799D03*
G54D22*
G01X3675Y48799D03*
G01X6175Y49799D03*
G54D20*
G01X14051Y45799D03*
G01X15051Y45799D03*
G54D22*
G01X13051Y48799D03*
G01X15551Y49799D03*
G54D20*
G01X21552Y45799D03*
G01X22552Y45799D03*
G54D22*
G01X20552Y48799D03*
G01X23052Y49799D03*
G54D20*
G01X29052Y45799D03*
G01X30052Y45799D03*
G54D22*
G01X28052Y48799D03*
G01X30552Y49799D03*
G54D20*
G01X36554Y45799D03*
G01X37554Y45799D03*
G54D22*
G01X35554Y48799D03*
G01X38054Y49799D03*
G54D20*
G01X44054Y45799D03*
G01X45054Y45799D03*
G54D22*
G01X43054Y48799D03*
G01X45554Y49799D03*
G54D20*
G01X51554Y45799D03*
G01X52554Y45799D03*
G54D22*
G01X50554Y48799D03*
G01X53054Y49799D03*
G54D20*
G01X59055Y45799D03*
G01X60055Y45799D03*
G54D22*
G01X58055Y48799D03*
G01X60555Y49799D03*
G54D20*
G01X66557Y45799D03*
G01X67557Y45799D03*
G54D22*
G01X65557Y48799D03*
G01X68057Y49799D03*
G54D20*
G01X74058Y45799D03*
G01X75058Y45799D03*
G54D22*
G01X73058Y48799D03*
G01X75558Y49799D03*
G54D20*
G01X83434Y45799D03*
G01X84434Y45799D03*
G54D22*
G01X82434Y48799D03*
G01X84934Y49799D03*
G54D20*
G01X2800Y38298D03*
G01X3800Y38298D03*
G54D22*
G01X1800Y41298D03*
G01X4300Y42298D03*
G54D20*
G01X10301Y38298D03*
G01X11301Y38298D03*
G54D22*
G01X9301Y41298D03*
G01X11801Y42298D03*
G54D20*
G01X17802Y38298D03*
G01X18802Y38298D03*
G54D22*
G01X16802Y41298D03*
G01X19302Y42298D03*
G54D20*
G01X25302Y38298D03*
G01X26302Y38298D03*
G54D22*
G01X24302Y41298D03*
G01X26802Y42298D03*
G54D20*
G01X32803Y38298D03*
G01X33803Y38298D03*
G54D22*
G01X31802Y41298D03*
G01X34303Y42298D03*
G54D20*
G01X40304Y38298D03*
G01X41304Y38298D03*
G54D22*
G01X39304Y41298D03*
G01X41804Y42298D03*
G54D20*
G01X47804Y38298D03*
G01X48804Y38298D03*
G54D22*
G01X46804Y41298D03*
G01X49304Y42298D03*
G54D20*
G01X55305Y38298D03*
G01X56305Y38298D03*
G54D22*
G01X54305Y41298D03*
G01X56805Y42298D03*
G54D20*
G01X62805Y38298D03*
G01X63805Y38298D03*
G54D22*
G01X61805Y41298D03*
G01X64305Y42298D03*
G54D20*
G01X70307Y38298D03*
G01X71307Y38298D03*
G54D22*
G01X69307Y41298D03*
G01X71807Y42298D03*
G54D20*
G01X77808Y38298D03*
G01X78808Y38298D03*
G54D22*
G01X76808Y41298D03*
G01X79308Y42298D03*
G54D20*
G01X85309Y38298D03*
G01X86309Y38298D03*
G54D22*
G01X84309Y41298D03*
G01X86809Y42298D03*
G54D20*
G01X3737Y30798D03*
G01X4738Y30798D03*
G54D22*
G01X2737Y33798D03*
G01X5238Y34798D03*
G54D20*
G01X13113Y30797D03*
G01X14113Y30797D03*
G54D22*
G01X12113Y33797D03*
G01X14613Y34797D03*
G54D20*
G01X22489Y30798D03*
G01X23489Y30798D03*
G54D22*
G01X21489Y33798D03*
G01X23989Y34798D03*
G54D20*
G01X31866Y30798D03*
G01X32866Y30798D03*
G54D22*
G01X30866Y33798D03*
G01X33366Y34798D03*
G54D20*
G01X61869Y30798D03*
G01X62869Y30798D03*
G54D22*
G01X60869Y33798D03*
G01X63369Y34798D03*
G54D20*
G01X70307Y30798D03*
G01X71307Y30798D03*
G54D22*
G01X69307Y33798D03*
G01X71807Y34798D03*
G54D20*
G01X77808Y30798D03*
G01X78808Y30798D03*
G54D22*
G01X76808Y33798D03*
G01X79308Y34798D03*

M00*
M02*